<?xml version="1.0" encoding="utf-8"?>
<!-- Generator: Adobe Illustrator 20.1.0, SVG Export Plug-In . SVG Version: 6.00 Build 0)  -->
<svg version="1.1" id="Layer_1" xmlns="http://www.w3.org/2000/svg" xmlns:xlink="http://www.w3.org/1999/xlink" x="0px" y="0px"
	 width="800px" height="273px" viewBox="0 0 800 273" style="enable-background:new 0 0 800 273;" xml:space="preserve">
<style type="text/css">
	.st0{fill:#FF3366;}
	.st1{fill:#FFFFFF;}
</style>
<path class="st0" d="M246.0682373,5H29.9317627C16.7145996,5,6,15.7145996,6,28.9317627v216.1364746
	C6,258.2854004,16.7145996,269,29.9317627,269h216.1364746C259.2854004,269,270,258.2854004,270,245.0682373V28.9317627
	C270,15.7145996,259.2854004,5,246.0682373,5z"/>
<path class="st0" d="M376.6990356,209.9479065h25.2670898V99.6969147h-25.2670898V209.9479065z M468.9973145,144.7987061
	c-12.949585-4.1825256-24.8551025-7.5202637-24.8551025-15.4528809v-0.4189453
	c0-6.473053,5.6386108-11.0676117,15.4528809-11.0676117c4.7872314,0,10.1453247,1.0980072,15.6825562,3.0405426
	l-0.003418-0.0134888c0,0,0.0542603,0.0269775,0.1587524,0.0743866c0.4763794,0.1688232,0.9596558,0.3580475,1.442627,0.5403595
	c3.9967651,1.2637634,14.7772217,2.9526825,23.8618774-11.1554871
	c-11.696228-7.7298889-26.7266846-12.5337372-40.5172729-12.5337372c-21.9224854,0-39.2538452,12.7364655-39.2538452,33.6217804
	v0.4189453c0,21.0880432,18.1657715,27.7704163,34.453125,32.3652649
	c12.9492188,3.9663696,24.6454468,6.8885803,24.6454468,15.4494629v0.4154663
	c0,7.3109741-6.2669067,11.9055176-17.1252441,11.9055176c-7.2196045,0-15.1252441-1.9054871-23.00354-5.6182251
	c-2.2670288-0.9562073-14.0610962-4.9899597-24.1455688,9.3513794c13.7401123,10.7299194,30.953186,16.31427,46.5239868,16.31427
	c22.9630737,0,40.9262085-11.4796448,40.9262085-34.665863v-0.4154968
	C503.2407837,157.1196899,485.0749512,149.8087463,468.9973145,144.7987061z M307.7979736,180.7113647l-29.6506348-81.0144501H251
	l45.3148804,111.0822601h22.760376L364.178772,99.6969147h-26.519104L307.7979736,180.7113647z M620.5899658,97.3960114
	c-33.8280029,0-58.888916,26.0984192-58.888916,57.8420563c0,31.5274048,24.8482056,57.2134705,58.4699707,57.2134705
	c34.0410156,0,59.0985107-26.1018982,59.0985107-57.6324158C679.2695312,123.0820618,654.4147949,97.3960114,620.5899658,97.3960114
	z M620.5899658,190.528717c-19.631958,0-33.6218262-16.0811462-33.6218262-35.7095947
	c0-19.4157257,12.946106-35.2910309,33.2028809-35.2910309c19.8346558,0,33.8280029,16.0780334,33.8280029,35.7099762
	C653.9990234,174.6572571,641.0497437,190.528717,620.5899658,190.528717z M754.2264404,97.3960114
	c-17.1252441,0-27.3549805,8.9798126-34.4562988,19.4191742V99.6969147h-25.263916v110.2509918h25.263916v-62.2304382
	c0-17.1217346,10.2332764-27.3514557,24.8516846-27.3514557c15.0371094,0,23.5948486,9.8107758,23.5948486,26.9325104v62.6493835
	h25.2670898V139.785202C793.4837646,114.1022491,779.074585,97.3960114,754.2264404,97.3960114z M519.9404297,209.9479065
	h25.2705688V99.6969147h-25.2705688V209.9479065z"/>
<g>
	<path class="st1" d="M94.2284851,88.0616608c8.7767334,0,16.1275635-6.878418,16.1275635-15.8939819
		c0-9.0089722-7.3508301-15.8857422-16.1275635-15.8857422c-8.7750244,0-16.1256104,6.87677-16.1256104,15.8857422
		C78.1028748,81.1832428,85.4534607,88.0616608,94.2284851,88.0616608z"/>
	<path class="st1" d="M60.7893982,173.1609192c-0.9477539,4.0319824-1.4233398,8.3862305-1.4233398,11.9383545
		c0,13.9950562,7.5894775,23.2854614,23.7166748,23.2854614c13.3762207,0,24.2193604-7.9438477,32.0258789-20.7689209
		l-4.7669678,19.1333008h26.5607605l15.1799316-60.883606c3.7937012-15.4167023,11.145752-23.4170685,22.293457-23.4170685
		c8.7753906,0,14.2304688,5.4568481,14.2304688,14.4656982c0,2.6107788-0.2385254,5.4539337-1.1861572,8.5383453
		l-7.8277588,27.984314c-1.1859131,4.0319824-1.6582031,8.067627-1.6582031,11.8580322
		c0,13.2860718,7.8243408,23.0043335,24.1887207,23.0043335c13.9934082,0,25.1395264-9.0084839,31.3056641-30.5913086
		l-10.4338379-4.0285645c-5.2182617,14.4594727-9.7246094,17.0741577-13.28125,17.0741577
		c-3.5583496,0-5.4567871-2.3703613-5.4567871-7.1116943c0-2.1337891,0.4768066-4.5026855,1.1861572-7.3551025l7.5906982-27.2645874
		c1.8968506-6.4015503,2.6090088-12.0795441,2.6090088-17.294754c0-20.3963013-12.3336182-31.0400391-27.2747803-31.0400391
		c-13.9919434,0-28.2226562,12.6206055-35.3361816,25.9034424l5.2165527-23.8416138h-40.5544128l-5.6922607,21h18.9733887
		l-11.6824951,46.7776642c-9.1765137,20.3962402-26.0305176,20.7271729-28.1450195,20.2532349
		c-3.4731445-0.7832642-5.6938477-2.1022339-5.6938477-6.614502c0-2.6044312,0.4736328-6.3447876,1.6599121-10.8540039
		l17.7888184-70.5623932H59.8416443l-5.6921387,21h18.7347412L60.7893982,173.1609192z"/>
</g>
</svg>
