<?xml version="1.0" encoding="UTF-8" standalone="no"?>
<!-- Created with Inkscape (http://www.inkscape.org/) -->

<svg
   xmlns:dc="http://purl.org/dc/elements/1.1/"
   xmlns:cc="http://creativecommons.org/ns#"
   xmlns:rdf="http://www.w3.org/1999/02/22-rdf-syntax-ns#"
   xmlns:svg="http://www.w3.org/2000/svg"
   xmlns="http://www.w3.org/2000/svg"
   xmlns:sodipodi="http://sodipodi.sourceforge.net/DTD/sodipodi-0.dtd"
   xmlns:inkscape="http://www.inkscape.org/namespaces/inkscape"
   id="svg2"
   version="1.1"
   inkscape:version="0.48.4 r9939"
   width="380.6125"
   height="308.35"
   xml:space="preserve"
   sodipodi:docname="Oraclize_RGB.eps"><metadata
     id="metadata8"><rdf:RDF><cc:Work
         rdf:about=""><dc:format>image/svg+xml</dc:format><dc:type
           rdf:resource="http://purl.org/dc/dcmitype/StillImage" /><dc:title></dc:title></cc:Work></rdf:RDF></metadata><defs
     id="defs6" /><sodipodi:namedview
     pagecolor="#ffffff"
     bordercolor="#666666"
     borderopacity="1"
     objecttolerance="10"
     gridtolerance="10"
     guidetolerance="10"
     inkscape:pageopacity="0"
     inkscape:pageshadow="2"
     inkscape:window-width="640"
     inkscape:window-height="480"
     id="namedview4"
     showgrid="false"
     inkscape:zoom="0.76536402"
     inkscape:cx="190.30624"
     inkscape:cy="154.175"
     inkscape:window-x="0"
     inkscape:window-y="0"
     inkscape:window-maximized="0"
     inkscape:current-layer="g10" /><g
     id="g10"
     inkscape:groupmode="layer"
     inkscape:label="ink_ext_XXXXXX"
     transform="matrix(1.25,0,0,-1.25,0,308.35)"><g
       id="g12"
       transform="scale(0.1,0.1)"><path
         d="m 211.742,70 c 40.738,0 70.875,14.7383 90.367,44.281 19.477,29.539 29.215,70.571 29.215,123.129 0,52.578 -9.738,93.481 -29.215,122.711 -19.492,29.258 -49.629,43.867 -90.367,43.867 -40.765,0 -70.746,-14.609 -89.926,-43.867 -19.203,-29.23 -28.7965,-70.133 -28.7965,-122.711 0,-52.558 9.5935,-93.59 28.7965,-123.129 C 140.996,84.7383 170.977,70 211.742,70 z m 0,-70 C 176.309,0 145.277,6.05859 118.715,18.168 92.125,30.2695 69.9805,46.9609 52.2773,68.2188 34.5547,89.4805 21.3906,114.559 12.8555,143.512 4.28125,172.43 0,203.75 0,237.41 c 0,33.68 4.28125,64.981 12.8555,93.918 8.5351,28.953 21.6992,54.031 39.4218,75.293 17.7032,21.289 39.8477,38.109 66.4377,50.52 26.562,12.39 57.594,18.609 93.027,18.609 35.426,0 66.442,-6.219 93.02,-18.609 26.562,-12.411 48.73,-29.231 66.433,-50.52 17.723,-21.262 30.875,-46.34 39.426,-75.293 8.559,-28.937 12.852,-60.238 12.852,-93.918 0,-33.66 -4.293,-64.98 -12.852,-93.898 C 402.07,114.559 388.918,89.4805 371.195,68.2188 353.492,46.9609 331.324,30.2695 304.762,18.168 278.184,6.05859 247.168,0 211.742,0"
         style="fill:#5fb8ea;fill-opacity:1;fill-rule:nonzero;stroke:none"
         id="path14" /><path
         d="m 538.633,465.109 c 6.488,1.192 12.699,2.071 18.609,2.672 5.899,0.559 12.094,0.879 18.598,0.879 6.496,0 12.988,-0.32 19.492,-0.879 6.488,-0.601 12.402,-1.48 17.731,-2.672 1.757,-8.847 3.531,-20.539 5.3,-35 1.774,-14.48 2.668,-26.718 2.668,-36.757 12.414,20.078 28.789,37.476 49.168,52.277 20.371,14.742 46.512,22.152 78.391,22.152 4.734,0 9.609,-0.16 14.629,-0.441 5.004,-0.32 9.297,-0.75 12.855,-1.352 1.176,-5.297 2.055,-10.937 2.653,-16.84 0.582,-5.886 0.89,-12.109 0.89,-18.597 0,-7.082 -0.453,-14.449 -1.332,-22.141 -0.89,-7.68 -1.941,-15.058 -3.105,-22.14 -4.746,1.16 -9.61,1.761 -14.614,1.761 -5.031,0 -9.011,0 -11.976,0 -15.934,0 -31.145,-2.203 -45.617,-6.621 -14.489,-4.449 -27.469,-12.289 -38.981,-23.488 -11.512,-11.231 -20.691,-26.594 -27.453,-46.07 -6.809,-19.5 -10.195,-44.622 -10.195,-75.293 l 0,-225.9184 C 619.84,9.44922 612.605,8.57031 604.645,7.96875 596.664,7.41016 589.418,7.08984 582.93,7.08984 c -6.508,0 -13.735,0.32032 -21.703,0.87891 -7.981,0.60156 -15.508,1.48047 -22.594,2.67185 l 0,454.4684"
         style="fill:#5fb8ea;fill-opacity:1;fill-rule:nonzero;stroke:none"
         id="path16" /><path
         d="m 1099.43,224.129 c -8.86,1.18 -20.08,2.359 -33.66,3.551 -13.61,1.172 -25.12,1.761 -34.56,1.761 -36.632,0 -64.526,-6.781 -83.722,-20.351 -19.203,-13.61 -28.773,-34.281 -28.773,-62.039 0,-17.711 3.234,-31.582 9.723,-41.621 6.496,-10.0589 14.621,-17.7386 24.371,-23.0394 9.75,-5.332 20.519,-8.5625 32.343,-9.75 11.813,-1.1601 23.018,-1.7617 33.668,-1.7617 13.56,0 27.59,0.7227 42.07,2.1992 14.47,1.4727 27.31,3.6719 38.54,6.6524 l 0,144.3985 z m 0,85.93 c 0,34.851 -8.86,59.062 -26.58,72.671 -17.72,13.571 -43.4,20.379 -77.08,20.379 -20.668,0 -40.004,-1.66 -58.016,-4.89 -18.031,-3.258 -35.606,-7.52 -52.719,-12.86 -11.226,19.512 -16.836,42.84 -16.836,69.993 20.071,6.5 42.227,11.519 66.457,15.089 24.199,3.547 47.524,5.309 69.984,5.309 59.06,0 103.93,-13.461 134.66,-40.309 30.69,-26.902 46.06,-69.863 46.06,-128.91 l 0,-284.3826 C 1164.68,17.418 1139.59,12.5195 1110.06,7.5 1080.54,2.51172 1050.4,0 1019.7,0 990.754,0 964.613,2.67188 941.285,7.96875 917.949,13.3008 898.176,21.8398 881.934,33.6602 c -16.258,11.8203 -28.789,26.8711 -37.653,45.1914 -8.855,18.2773 -13.297,40.4494 -13.297,66.4494 0,25.367 5.176,47.668 15.508,66.89 10.332,19.188 24.367,35.129 42.086,47.821 17.723,12.707 38.102,22.168 61.125,28.347 23.031,6.211 47.262,9.321 72.647,9.321 18.9,0 34.4,-0.469 46.52,-1.352 12.09,-0.879 22.27,-1.91 30.56,-3.066 l 0,16.797"
         style="fill:#5fb8ea;fill-opacity:1;fill-rule:nonzero;stroke:none"
         id="path18" /><path
         d="m 1620.35,89.4805 c 4.73,-8.2813 8.85,-18.6016 12.4,-31.0196 3.55,-12.3828 5.62,-25.0898 6.21,-38.082 C 1604.1,6.78125 1564.24,0 1519.36,0 c -75.61,0 -132.6,21.3984 -170.99,64.2305 -38.4,42.8085 -57.58,100.5705 -57.58,173.1795 0,33.68 4.71,64.981 14.17,93.918 9.44,28.953 23.48,54.031 42.09,75.293 18.59,21.289 41.78,38.109 69.54,50.52 27.76,12.39 59.95,18.609 96.57,18.609 24.8,0 46.65,-1.48 65.55,-4.43 18.9,-2.98 36.92,-7.711 54.04,-14.179 0,-10.063 -1.32,-21.7 -3.97,-34.993 -2.67,-13.296 -6.36,-24.968 -11.08,-35 -28.95,10.032 -62.03,15.051 -99.23,15.051 -45.47,0 -79.45,-15.051 -101.88,-45.187 -22.45,-30.102 -33.66,-69.973 -33.66,-119.602 0,-56.672 12.69,-98.191 38.1,-124.449 25.38,-26.2813 60.24,-39.4219 104.54,-39.4219 17.7,0 34.11,1.1718 49.16,3.5195 15.06,2.3828 30.26,6.5 45.62,12.4219"
         style="fill:#5fb8ea;fill-opacity:1;fill-rule:nonzero;stroke:none"
         id="path20" /><path
         d="m 1739.06,660.012 c 6.49,1.156 13.73,2.066 21.7,2.66 7.97,0.578 15.2,0.887 21.71,0.887 6.49,0 13.72,-0.309 21.71,-0.887 7.98,-0.594 15.2,-1.504 21.7,-2.66 l 0,-512.082 c 0,-16.52 1.46,-29.508 4.43,-38.95 2.95,-9.4683 6.94,-16.7105 11.96,-21.6987 5.02,-5.0508 10.92,-8.3008 17.71,-9.7618 6.8,-1.4882 14.02,-2.2109 21.71,-2.2109 5.3,0 11.37,0.2812 18.15,0.8711 6.81,0.5703 12.56,1.4805 17.3,2.6719 5.3,-20.6914 7.98,-43.1211 7.98,-67.3321 -8.29,-2.94919 -18.32,-4.87106 -30.14,-5.7695 -11.84,-0.87891 -22.73,-1.32031 -32.77,-1.32031 -17.14,0 -33.09,2.07031 -47.85,6.21091 -14.76,4.1094 -27.76,10.918 -38.99,20.3789 -11.2,9.4102 -20.07,22.1211 -26.56,38.0703 -6.52,15.961 -9.75,35.7622 -9.75,59.3712 l 0,531.551"
         style="fill:#5fb8ea;fill-opacity:1;fill-rule:nonzero;stroke:none"
         id="path22" /><path
         d="m 2011.91,565.219 c -1.21,7.082 -1.93,14.761 -2.21,23.043 -0.3,8.258 -0.45,15.636 -0.45,22.136 0,6.5 0.15,13.872 0.45,22.141 0.28,8.262 1,15.66 2.21,22.152 7.7,1.18 15.95,2.059 24.79,2.661 8.88,0.589 16.56,0.898 23.07,0.898 6.47,0 14.19,-0.309 23.01,-0.898 8.88,-0.602 16.83,-1.481 23.93,-2.661 1.18,-6.492 1.93,-13.89 2.22,-22.152 0.29,-8.269 0.45,-15.641 0.45,-22.141 0,-6.5 -0.16,-13.878 -0.45,-22.136 -0.29,-8.282 -1.04,-15.961 -2.22,-23.043 -7.1,-1.188 -14.92,-2.071 -23.47,-2.66 -8.56,-0.598 -16.12,-0.879 -22.61,-0.879 -7.08,0 -15.05,0.281 -23.93,0.879 -8.84,0.589 -17.09,1.472 -24.79,2.66 z M 2031.4,396 l -57.58,0 c -1.18,4.73 -2.07,10.211 -2.65,16.398 -0.6,6.211 -0.9,12.231 -0.9,18.153 0,5.898 0.3,11.98 0.9,18.179 0.58,6.188 1.47,11.641 2.65,16.379 l 143.53,0 0,-454.4684 c -6.51,-1.19138 -13.73,-2.07029 -21.7,-2.67185 -7.97,-0.55859 -15.21,-0.87891 -21.69,-0.87891 -5.93,0 -12.88,0.32032 -20.85,0.87891 -7.97,0.60156 -15.22,1.48047 -21.71,2.67185 l 0,385.3594"
         style="fill:#5fb8ea;fill-opacity:1;fill-rule:nonzero;stroke:none"
         id="path24" /><path
         d="m 2214.79,23.0313 239.2,372.0897 -210.85,0 c -1.77,10.629 -2.66,22.449 -2.66,35.43 0,12.418 0.89,23.929 2.66,34.558 l 341.08,0 4.43,-11.507 -240.96,-372.9926 225.91,0 c 1.75,-11.8281 2.65,-23.9102 2.65,-36.3203 0,-11.8282 -0.9,-23.0274 -2.65,-33.6485 l -354.39,0 -4.42,12.3907"
         style="fill:#5fb8ea;fill-opacity:1;fill-rule:nonzero;stroke:none"
         id="path26" /><path
         d="m 2958.07,281.719 c 0,16.531 -2.19,32.332 -6.64,47.41 -4.42,15.051 -10.95,28.199 -19.48,39.422 -8.59,11.199 -19.51,20.23 -32.79,27.008 -13.28,6.8 -29.1,10.191 -47.4,10.191 -36.05,0 -63.63,-10.941 -82.82,-32.781 -19.22,-21.848 -30.89,-52.27 -35,-91.25 l 224.13,0 z m -225.02,-65.551 c 1.17,-49.609 14,-85.949 38.52,-108.977 24.51,-23.0504 60.69,-34.5504 108.54,-34.5504 41.91,0 81.77,7.3907 119.61,22.1407 4.71,-8.8516 8.55,-19.6329 11.52,-32.3399 2.92,-12.6914 4.72,-25.2422 5.28,-37.6523 -19.47,-8.25 -40.89,-14.461 -64.21,-18.57816 C 2928.96,2.07031 2903.15,0 2874.8,0 c -41.35,0 -76.8,5.75 -106.3,17.2891 -29.57,11.5 -53.91,27.7226 -73.11,48.7304 -19.19,20.9493 -33.21,45.7305 -42.08,74.3905 -8.85,28.66 -13.3,60.078 -13.3,94.36 0,33.679 4.3,65.14 12.84,94.359 8.57,29.23 21.72,54.601 39.44,76.18 17.72,21.57 40.01,38.671 66.88,51.39 26.88,12.68 58.61,19.051 95.23,19.051 31.32,0 58.77,-5.309 82.41,-15.941 23.61,-10.661 43.4,-25.25 59.36,-43.868 15.93,-18.601 28.05,-40.742 36.33,-66.453 8.24,-25.687 12.4,-53.597 12.4,-83.726 0,-8.262 -0.32,-16.973 -0.91,-26.133 -0.57,-9.16 -1.19,-16.969 -1.76,-23.461 l -309.18,0"
         style="fill:#5fb8ea;fill-opacity:1;fill-rule:nonzero;stroke:none"
         id="path28" /><path
         d="m 1509.37,915.66 c -427.65,0 -775.561,347.92 -775.561,775.57 0,151.84 43.882,298.9 126.898,425.29 11.734,17.86 35.723,22.84 53.594,11.1 17.863,-11.74 22.844,-35.73 11.097,-53.59 -74.699,-113.73 -114.187,-246.1 -114.187,-382.8 0,-384.97 313.189,-698.16 698.159,-698.16 21.37,0 38.71,-17.32 38.71,-38.699 0,-21.391 -17.34,-38.711 -38.71,-38.711"
         style="fill:#3f5461;fill-opacity:1;fill-rule:nonzero;stroke:none"
         id="path30" /><path
         d="m 1770.38,963.199 c -15.62,0 -30.34,9.551 -36.2,25.02 -7.58,19.991 2.48,42.321 22.48,49.891 269.67,102.17 450.87,364.63 450.87,653.12 0,31.13 -2.07,62.45 -6.13,93.08 -2.84,21.18 12.05,40.65 33.23,43.47 21.19,2.83 40.66,-12.07 43.49,-33.26 4.53,-34.01 6.82,-68.75 6.82,-103.29 0,-160.56 -48.65,-314.64 -140.67,-445.55 -89.95,-127.95 -214.49,-224.76 -360.19,-279.942 -4.52,-1.707 -9.15,-2.539 -13.7,-2.539"
         style="fill:#3f5461;fill-opacity:1;fill-rule:nonzero;stroke:none"
         id="path32" /><path
         d="m 2180.1,1958.13 c -14.69,0 -28.74,8.41 -35.24,22.64 -113.29,248.23 -362.73,408.63 -635.49,408.63 -160.49,0 -311.37,-52.94 -436.31,-153.11 -16.68,-13.36 -41.04,-10.66 -54.41,6 -13.36,16.68 -10.68,41.03 6,54.4 136.83,109.7 308.97,170.11 484.72,170.11 302.98,0 580.07,-178.16 705.91,-453.9 8.88,-19.44 0.32,-42.4 -19.14,-51.27 -5.2,-2.38 -10.66,-3.5 -16.04,-3.5"
         style="fill:#3f5461;fill-opacity:1;fill-rule:nonzero;stroke:none"
         id="path34" /><path
         d="m 1509.37,1117.44 c -96.66,0 -192.23,24.5 -276.4,70.84 -18.73,10.33 -25.56,33.86 -15.24,52.58 10.31,18.73 33.86,25.55 52.56,15.24 72.78,-40.07 155.44,-61.25 239.08,-61.24 273.7,0 496.37,222.67 496.37,496.37 0,182.55 -99.84,349.97 -260.57,436.91 -18.8,10.17 -25.79,33.66 -15.63,52.46 10.17,18.8 33.65,25.79 52.45,15.62 185.76,-100.49 301.17,-293.98 301.17,-504.99 0,-316.38 -257.41,-573.79 -573.79,-573.79"
         style="fill:#3f5461;fill-opacity:1;fill-rule:nonzero;stroke:none"
         id="path36" /><path
         d="m 1086.88,1324.17 c -11.53,0 -22.94,5.14 -30.57,14.94 -78.97,101.48 -120.72,223.24 -120.72,352.12 0,316.39 257.4,573.78 573.78,573.78 21.37,0 38.71,-17.32 38.71,-38.7 0,-21.38 -17.34,-38.7 -38.71,-38.7 -273.71,0 -496.37,-222.68 -496.37,-496.38 0,-111.5 36.09,-216.82 104.39,-304.59 13.13,-16.86 10.11,-41.18 -6.77,-54.3 -7.07,-5.5 -15.43,-8.17 -23.74,-8.17"
         style="fill:#3f5461;fill-opacity:1;fill-rule:nonzero;stroke:none"
         id="path38" /><path
         d="m 1509.37,1976.52 c -157.3,0 -285.29,-127.98 -285.29,-285.29 0,-157.31 127.99,-285.29 285.29,-285.29 157.31,0 285.29,127.98 285.29,285.29 0,157.31 -127.98,285.29 -285.29,285.29 z m 0,-656.68 c -204.79,0 -371.4,166.61 -371.4,371.39 0,204.79 166.61,371.39 371.4,371.39 204.79,0 371.38,-166.6 371.38,-371.39 0,-204.78 -166.59,-371.39 -371.38,-371.39"
         style="fill:#5fb8ea;fill-opacity:1;fill-rule:nonzero;stroke:none"
         id="path40" /><path
         d="m 1108.38,2248.41 c 0,-41.99 -34.04,-76.02 -76.02,-76.02 -41.985,0 -76.02,34.03 -76.02,76.02 0,41.98 34.035,76.02 76.02,76.02 41.98,0 76.02,-34.04 76.02,-76.02"
         style="fill:#3f5461;fill-opacity:1;fill-rule:nonzero;stroke:none"
         id="path42" /><path
         d="m 1614.46,954.371 c 0,-42 -34.04,-76.031 -76.02,-76.031 -41.98,0 -76.03,34.031 -76.03,76.031 0,41.981 34.05,76.009 76.03,76.009 41.98,0 76.02,-34.028 76.02,-76.009"
         style="fill:#3f5461;fill-opacity:1;fill-rule:nonzero;stroke:none"
         id="path44" /><path
         d="m 2311.09,1794.59 c 0,-41.98 -34.04,-76.02 -76.01,-76.02 -41.98,0 -76.03,34.04 -76.03,76.02 0,42 34.05,76.03 76.03,76.03 41.97,0 76.01,-34.03 76.01,-76.03"
         style="fill:#3f5461;fill-opacity:1;fill-rule:nonzero;stroke:none"
         id="path46" /><path
         d="m 1821.79,2172.39 c 0,-41.99 -34.04,-76.03 -76.02,-76.03 -41.98,0 -76.02,34.04 -76.02,76.03 0,41.99 34.04,76.02 76.02,76.02 41.98,0 76.02,-34.03 76.02,-76.02"
         style="fill:#3f5461;fill-opacity:1;fill-rule:nonzero;stroke:none"
         id="path48" /><path
         d="m 1159.53,1362.87 c 0,-41.98 -34.04,-76.02 -76.02,-76.02 -42,0 -76.03,34.04 -76.03,76.02 0,42 34.03,76.03 76.03,76.03 41.98,0 76.02,-34.03 76.02,-76.03"
         style="fill:#3f5461;fill-opacity:1;fill-rule:nonzero;stroke:none"
         id="path50" /></g></g></svg>