<svg xmlns="http://www.w3.org/2000/svg" viewBox="0 0 257.3 88.79"><defs><style>.cls-1{fill:#4fba6f;}</style></defs><title>logo_path</title><g id="Layer_2" data-name="Layer 2"><g id="Layer_1-2" data-name="Layer 1"><path class="cls-1" d="M66.18,49.55v18.6H60.52V49.55H53.9V44.72h18.9v4.83Z"/><path class="cls-1" d="M75.38,68.15V44.72H91.13v4.77H80.84v4.44h9.73v4.53H80.84v4.87H91.73v4.83Z"/><path class="cls-1" d="M111.35,68.15l-1.82-4.6h-9.07l-1.72,4.6H92.59l9.83-23.43h5.49l9.73,23.43ZM105.07,51l-3,8H108Z"/><path class="cls-1" d="M140.84,68.15,141,51.57h-.1l-6.09,16.58h-4l-5.92-16.58h-.1l.13,16.58h-5.33V44.72h8.05l5.34,15h.13l5.1-15h8.19V68.15Z"/><path class="cls-1" d="M165.75,48.49a5.74,5.74,0,0,0-2-1.7,6,6,0,0,0-2.88-.65,6.18,6.18,0,0,0-1.75.26,5.09,5.09,0,0,0-1.62.81,4.17,4.17,0,0,0-1.17,1.37,4.05,4.05,0,0,0-.45,2,3.61,3.61,0,0,0,.43,1.85,4.08,4.08,0,0,0,1.14,1.24,6.62,6.62,0,0,0,1.62.84l1.9.66q1.22.4,2.46.86a8.87,8.87,0,0,1,2.23,1.21,5.86,5.86,0,0,1,1.62,1.89,6,6,0,0,1,.63,2.9,6.43,6.43,0,0,1-.67,3,6.34,6.34,0,0,1-1.74,2.1,7.23,7.23,0,0,1-2.44,1.22,9.88,9.88,0,0,1-2.76.4,10.67,10.67,0,0,1-2.12-.21,9.61,9.61,0,0,1-2-.65,8.21,8.21,0,0,1-1.79-1.09,7.89,7.89,0,0,1-1.46-1.52L155,63.75a6.28,6.28,0,0,0,2.13,2.1,6,6,0,0,0,3.23.84,6.25,6.25,0,0,0,1.82-.28,5.11,5.11,0,0,0,1.67-.86,4.76,4.76,0,0,0,1.23-1.42,4.42,4.42,0,0,0,0-4,4.28,4.28,0,0,0-1.27-1.36,7.83,7.83,0,0,0-1.82-.91q-1-.36-2.15-.73t-2.28-.83a7.69,7.69,0,0,1-2-1.21,5.64,5.64,0,0,1-1.44-1.84,6.71,6.71,0,0,1,.13-5.59,6.11,6.11,0,0,1,1.77-2,7.42,7.42,0,0,1,2.42-1.16,9.85,9.85,0,0,1,2.62-.36,9,9,0,0,1,4.07.84,7,7,0,0,1,2.55,2Z"/><path class="cls-1" d="M180.58,68.15H178.2V46.84h-7.84V44.72h18.07v2.12h-7.84Z"/><path class="cls-1" d="M200.57,68.75a9.1,9.1,0,0,1-4.34-.91,7.73,7.73,0,0,1-2.68-2.3,8.45,8.45,0,0,1-1.37-3,13.68,13.68,0,0,1-.38-3.09V44.72h2.38V59.15a11.48,11.48,0,0,0,.33,2.76,6.88,6.88,0,0,0,1.08,2.38,5.56,5.56,0,0,0,2,1.69,7.35,7.35,0,0,0,6,0,5.55,5.55,0,0,0,2-1.69,6.92,6.92,0,0,0,1.08-2.38,11.53,11.53,0,0,0,.33-2.76V44.72h2.38v14.7a13.68,13.68,0,0,1-.38,3.09,8.45,8.45,0,0,1-1.37,3,7.68,7.68,0,0,1-2.7,2.3A9.12,9.12,0,0,1,200.57,68.75Z"/><path class="cls-1" d="M215.43,44.72h7.78a13.93,13.93,0,0,1,4.39.73,12.13,12.13,0,0,1,4,2.2,11.18,11.18,0,0,1,2.86,3.67,12.56,12.56,0,0,1,0,10.24,11.21,11.21,0,0,1-2.86,3.66,12.08,12.08,0,0,1-4,2.2,13.87,13.87,0,0,1-4.39.73h-7.78ZM217.82,66h4.73a11.86,11.86,0,0,0,4.62-.83A9.64,9.64,0,0,0,230.43,63,8.84,8.84,0,0,0,232.36,60a10,10,0,0,0,0-7.08,8.85,8.85,0,0,0-1.94-3.06,9.65,9.65,0,0,0-3.26-2.17,11.87,11.87,0,0,0-4.62-.83h-4.73Z"/><path class="cls-1" d="M248.53,68.15h-2.38V58.06l-8.77-13.34h3l7.05,11.35,7.12-11.35h2.78l-8.77,13.34Z"/><path class="cls-1" d="M.72,53c-2.78-17.41,2.54-31.91,16-43.39a7.3,7.3,0,0,1,3.25-2c.45,5.46,3,9.38,8.74,11.06C14.52,30.49,8.75,45,14,62.61c4,13.51,13.33,22.24,27,26.17C28.19,87.72,3.75,72,.72,53"/><path class="cls-1" d="M22.5,8.15A8.06,8.06,0,0,1,30.59,0,8.27,8.27,0,0,1,39,8.21a8.53,8.53,0,0,1-8.18,8.28A8.31,8.31,0,0,1,22.5,8.15"/><path class="cls-1" d="M18.65,57.61C16.89,44.14,21.3,33.09,31.89,24.54a5.63,5.63,0,0,1,2.55-1.46c.23,4.21,2.12,7.29,6.49,8.71C29.77,40.58,25,51.6,28.69,65.31c2.81,10.49,7.83,16,18.25,19.37-9.83-1.1-26.36-12.36-28.28-27.07"/><path class="cls-1" d="M36.41,23.56a6.21,6.21,0,0,1,6.41-6.1A6.37,6.37,0,0,1,49.15,24a6.57,6.57,0,0,1-6.48,6.2,6.4,6.4,0,0,1-6.27-6.6"/><path class="cls-1" d="M32.61,60.38c-.86-8.73,2.21-15.78,9.22-21.08a3.62,3.62,0,0,1,1.67-.89,5.7,5.7,0,0,0,4,5.76c-7.38,5.45-10.68,12.47-8.59,21.39,1.61,6.83,6,11.45,12.62,13.81-6.33-.91-18-9.44-18.94-19"/><path class="cls-1" d="M44.76,38.74A4,4,0,0,1,49,34.93a4.12,4.12,0,0,1,4,4.33,4.24,4.24,0,0,1-4.31,3.87,4.14,4.14,0,0,1-3.91-4.39"/></g></g></svg>