<?xml version="1.0" standalone="no"?>
<!DOCTYPE svg PUBLIC "-//W3C//DTD SVG 1.1//EN" "http://www.w3.org/Graphics/SVG/1.1/DTD/svg11.dtd" >
<svg xmlns="http://www.w3.org/2000/svg">
<metadata></metadata>
<defs>
<font id="hackthevalleyregular" horiz-adv-x="1263" >
<font-face units-per-em="2048" ascent="1638" descent="-410" />
<missing-glyph horiz-adv-x="430" />
<glyph horiz-adv-x="0" />
<glyph horiz-adv-x="0" />
<glyph unicode="&#xd;" horiz-adv-x="1249" />
<glyph unicode=" "  horiz-adv-x="430" />
<glyph unicode="&#x09;" horiz-adv-x="430" />
<glyph unicode="&#xa0;" horiz-adv-x="430" />
<glyph unicode="!" horiz-adv-x="673" d="M92 1051v585h488v-585l-101 -533h-295zM106 0v356h459v-356h-459z" />
<glyph unicode="&#x22;" horiz-adv-x="774" d="M18 1636h338l-92 -358h-158zM406 1636h339l-90 -358h-159z" />
<glyph unicode="#" horiz-adv-x="1898" d="M43 430l51 227h334l68 297h-334l51 234h334l100 448h322l-103 -448h305l103 448h319l-102 -448h334l-53 -234h-330l-68 -297h330l-53 -227h-330l-96 -430h-320l96 430h-307l-94 -430h-324l99 430h-332zM748 657h305l67 297h-305z" />
<glyph unicode="$" horiz-adv-x="1429" d="M43 1069v80q0 39 12.5 76t31.5 69.5t42 58t43 42.5q113 94 281 127v114h489v-98h293v-358h-580q-102 0 -102 -70q0 -74 104 -76l146 -4q203 -6 352 -84q100 -53 153.5 -122.5t57.5 -186.5l4 -92q4 -160 -123 -277q-117 -104 -305 -143v-125h-489v104h-371v369h620 q164 0 164 86v29q0 86 -135 90l-88 2q-123 4 -225.5 24.5t-181.5 63.5q-193 100 -193 301z" />
<glyph unicode="%" horiz-adv-x="2070" d="M160 1235v22q0 358 381 359q377 0 377 -359v-22q0 -356 -377 -356q-381 0 -381 356zM358 1196q0 -127 172 -127q176 0 177 127v113q0 129 -177 129q-172 0 -172 -123v-119zM371 0l1069 1636h278l-1069 -1636h-278zM1225 457v22q0 358 381 359q377 0 376 -359v-22 q0 -356 -376 -357q-381 0 -381 357zM1425 418q0 -127 172 -127q176 0 177 127v112q0 129 -177 129q-172 0 -172 -122v-119z" />
<glyph unicode="&#x26;" horiz-adv-x="1751" d="M49 467q0 119 72 233q74 127 192 168q-178 119 -178 336q0 227 174 346q162 111 430 111q250 0 426 -102q100 -59 147.5 -139.5t51.5 -182.5l4 -137h-450v61q0 125 -150 125q-66 0 -109 -32.5t-43 -86.5q0 -16 12.5 -35.5t29 -38t35 -35t30.5 -28.5l399 -377l66 154h467 q-33 -123 -86 -233.5t-127 -217.5l383 -356h-590l-90 88q-207 -115 -453 -115h-35q-281 0 -442 121q-166 129 -166 373zM557 483q0 -143 184 -143q49 0 113 22l-240 234q-57 -41 -57 -113z" />
<glyph unicode="'" horiz-adv-x="374" d="M18 1636h338l-92 -358h-158z" />
<glyph unicode="(" horiz-adv-x="770" d="M55 600q0 649 318 1036h354q-283 -369 -283 -1036q0 -653 283 -1028l-354 -2q-318 393 -318 1030z" />
<glyph unicode=")" horiz-adv-x="745" d="M23 -430q283 375 282 1030q0 676 -282 1036h354q86 -104 145.5 -227t100.5 -268q72 -274 71 -541q0 -647 -317 -1028v-2h-354z" />
<glyph unicode="*" horiz-adv-x="1013" d="M47 1264l86 227l252 -86l-14 231h272l-14 -231l254 84l84 -227l-262 -58l169 -182l-223 -137l-147 194l-148 -192l-219 137l170 182z" />
<glyph unicode="+" horiz-adv-x="1359" d="M57 559v342h422v363h398v-363h421v-342h-421v-364h-398v364h-422z" />
<glyph unicode="," horiz-adv-x="577" d="M111 0v371h378v-281q0 -68 -24.5 -126t-70.5 -102t-110.5 -73t-144.5 -35l-28 -2v195h26q63 0 111 41q0 4 1 5t1 3t2 4h-141z" />
<glyph unicode="-" horiz-adv-x="630" d="M53 631v260h504v-260h-504z" />
<glyph unicode="." horiz-adv-x="665" d="M152 0v274h344v-274h-344z" />
<glyph unicode="/" horiz-adv-x="1064" d="M20 0l740 1636h305l-737 -1636h-308z" />
<glyph unicode="0" horiz-adv-x="1429" d="M78 446v740q0 231 186 358q86 57 196.5 87t252.5 30q139 0 249.5 -29.5t196.5 -87.5q190 -129 191 -358v-740q0 -233 -189 -360q-168 -113 -448 -113q-279 0 -449 115q-186 125 -186 358zM569 487q0 -49 42.5 -80.5t101.5 -31.5t101 31.5t42 80.5v662q0 49 -42 80 t-101 31t-101.5 -31t-42.5 -80v-662z" />
<glyph unicode="1" horiz-adv-x="1431" d="M352 1241v395h727v-1636h-487v1241h-240z" />
<glyph unicode="2" horiz-adv-x="1431" d="M49 0v244q0 229 104.5 375.5t307.5 236.5l293 131q37 16 64.5 29.5t44 29t24.5 36t8 53.5q0 106 -180 106h-559v395h608q276 0 440 -116q174 -125 174 -359v-90q0 -260 -344 -397l-235 -94q-84 -35 -128 -75t-69 -102h770v-403h-1323z" />
<glyph unicode="3" horiz-adv-x="1431" d="M66 1241v395h1261v-225l-416 -389q53 0 114.5 -20.5t109.5 -49.5q121 -76 182 -170t61 -211v-96q0 -231 -182 -356q-168 -119 -438 -119h-686v403h659q170 0 170 142q0 66 -47 104.5t-123 38.5h-446v225l344 328h-563z" />
<glyph unicode="4" horiz-adv-x="1431" d="M20 330v327l789 979h448v-946h152v-360h-152v-330h-493v330h-744zM522 690h242v354z" />
<glyph unicode="5" horiz-adv-x="1431" d="M70 0v403h647q170 1 170 142q0 66 -47 104.5t-123 38.5h-645v948h1233v-395h-742v-164h266q227 0 388 -135q150 -125 149 -330v-137q0 -233 -178 -358q-166 -117 -443 -117h-675z" />
<glyph unicode="6" horiz-adv-x="1431" d="M66 432v731q0 231 182 357q168 117 444 116h590v-387h-590q-127 0 -127 -119v-83q35 12 78 17t96 5q268 0 475 -147q156 -109 156 -314v-176q0 -231 -196 -350q-176 -109 -447 -109h-27q-283 0 -448 105q-186 117 -186 354zM563 471q0 -51 45 -83t105 -32q59 0 104 31 t45 84v111q0 51 -44 82.5t-105 31.5q-59 0 -104.5 -31.5t-45.5 -82.5v-111z" />
<glyph unicode="7" horiz-adv-x="1431" d="M47 1241v395h1372l-735 -1636h-549l613 1241h-701z" />
<glyph unicode="8" horiz-adv-x="1431" d="M43 446v111q0 203 188 328q-166 119 -165 307q0 233 192 356q170 109 451 113q279 2 456 -111q190 -127 191 -358q0 -195 -172 -307q193 -123 192 -328v-111q0 -233 -192 -358q-176 -115 -453 -115h-22v-2q-2 2 -9 2h-12q-276 0 -452 115q-193 125 -193 358zM555 471 q0 -115 154 -115q158 0 157 115v102q0 117 -157 117q-154 0 -154 -112v-107zM555 1092q0 -111 154 -111q158 0 157 111v67q0 111 -157 111q-154 0 -154 -111v-67z" />
<glyph unicode="9" horiz-adv-x="1431" d="M49 1006v182q0 231 191 358q86 55 197.5 85t252.5 30h15q285 0 460 -113q199 -127 199 -360v-721q0 -229 -186 -354q-170 -113 -447 -113h-610v403h610q133 0 133 107v57q-88 -20 -182 -20q-268 0 -475 145q-158 111 -158 314zM549 1034q0 -49 48 -81.5t108 -32.5 q31 0 58.5 8t50 23.5t35.5 37t13 45.5v119q0 49 -49 80t-108 31t-107.5 -31t-48.5 -80v-119z" />
<glyph unicode=":" horiz-adv-x="579" d="M131 0v274h344v-274h-344zM131 594v274h344v-274h-344z" />
<glyph unicode=";" horiz-adv-x="579" d="M111 0v371h378v-281q0 -68 -24.5 -126t-70.5 -102t-110.5 -73t-144.5 -35l-28 -2v195h26q63 0 111 41q0 4 1 5t1 3t2 4h-141zM131 594v274h344v-274h-344z" />
<glyph unicode="&#x3c;" horiz-adv-x="1392" d="M72 442v295l1235 389v-292l-795 -244l795 -244v-293z" />
<glyph unicode="=" horiz-adv-x="1359" d="M57 365v321h1229v-321h-1229zM57 864v318h1229v-318h-1229z" />
<glyph unicode="&#x3e;" horiz-adv-x="1392" d="M88 53v293l795 244l-795 244v292l1233 -389v-295z" />
<glyph unicode="?" horiz-adv-x="1290" d="M45 1110v78q0 225 168 354q156 119 430 119q272 0 434 -115q172 -123 172 -354q0 -219 -178 -320l-14 -8l-15 -6q-16 -12 -28 -14q-139 -78 -140 -174v-152h-454v141q0 303 260 359q90 35 90 108v33q0 111 -127 111q-131 0 -131 -109v-51h-467zM420 0v356h454v-356h-454z " />
<glyph unicode="@" horiz-adv-x="1910" d="M88 815q0 176 55.5 332t165.5 289q188 225 647 225q420 0 650 -223q221 -209 221 -578v-31q0 -166 -127 -297q-63 -61 -146.5 -93.5t-187.5 -32.5h-524q-322 0 -322 403v31q0 203 84 292t250 89h471v-592h80q59 0 94 73q23 51 23 121v21q0 258 -127 416 q-147 182 -441 182q-559 0 -559 -588v-37q0 -612 606 -612q268 0 383 102h328l-18 -31q-92 -156 -268.5 -228.5t-421.5 -72.5q-436 0 -682 234q-233 221 -234 606zM809 811q0 -88 12 -121q20 -57 107 -57h114v401h-112q-76 0 -92 -35q-29 -35 -29 -141v-47z" />
<glyph unicode="A" horiz-adv-x="1304" d="M-14 0l342 1636h647l344 -1636h-475l-31 203h-328l-30 -203h-469zM541 547q20 0 47.5 1t57.5 1t59.5 -1t52.5 -1l-111 641z" />
<glyph unicode="B" horiz-adv-x="1423" d="M100 0v1636h637q264 0 432 -102q190 -117 191 -338v-31q0 -172 -205 -282q231 -111 231 -308v-102q0 -231 -182 -356q-166 -117 -440 -117h-664zM590 403h184q121 0 121 113v45q0 113 -121 113h-184v-271zM590 1020h170q117 0 117 108q0 113 -117 113h-170v-221z" />
<glyph unicode="C" horiz-adv-x="1200" d="M82 473v690q0 227 180 355q167 118 434 118h4h433v-395h-428q-129 0 -130 -113v-612q0 -113 130 -113h428v-403h-433q-270 0 -438 119q-180 127 -180 354z" />
<glyph unicode="D" horiz-adv-x="1423" d="M100 0v1636h615q276 0 442 -116q180 -127 180 -359v-684q0 -231 -180 -358q-168 -119 -442 -119h-615zM592 403h125q131 0 131 115v608q0 115 -131 115h-125v-838z" />
<glyph unicode="E" horiz-adv-x="1366" d="M100 0v1636h1196v-395h-706v-209h387v-391h-387v-238h706v-403h-1196z" />
<glyph unicode="F" horiz-adv-x="1267" d="M100 0v1636h1117v-395h-627v-209h387v-391h-387v-641h-490z" />
<glyph unicode="G" horiz-adv-x="1386" d="M82 479v684q0 233 178 357q161 116 435 116h5h562v-395h-562q-129 0 -129 -115v-608q0 -115 129 -115h127v467h476v-870h-603q-270 0 -440 121q-178 125 -178 358z" />
<glyph unicode="H" horiz-adv-x="1488" d="M100 0v1636h490v-565h309v565h490v-1636h-490v682h-309v-682h-490z" />
<glyph unicode="I" horiz-adv-x="690" d="M100 0v1636h490v-1636h-490z" />
<glyph unicode="J" horiz-adv-x="1341" d="M47 457v225h475v-184q0 -109 121 -109q125 0 125 109v1138h489v-1179q0 -236 -176 -365q-158 -119 -438 -119q-139 0 -249.5 33t-187.5 95.5t-118 151.5t-41 204z" />
<glyph unicode="K" horiz-adv-x="1466" d="M100 0v1636h490v-536l342 536h547l-521 -645q193 -14 305.5 -106t112.5 -254v-631h-491v543q0 131 -131 131h-164v-674h-490z" />
<glyph unicode="L" horiz-adv-x="1155" d="M82 0v1636h489v-1233h500v-403h-989z" />
<glyph unicode="M" horiz-adv-x="1808" d="M100 0v1634h404l403 -610l400 610h405v-1634h-489v717l-316 -486l-317 486v-717h-490z" />
<glyph unicode="N" horiz-adv-x="1503" d="M100 0v1632h404l416 -706v706h489v-1632h-405l-414 567v-567h-490z" />
<glyph unicode="O" horiz-adv-x="1411" d="M82 446v740q0 225 178 356q166 119 440 119q270 0 439 -119q180 -125 180 -356v-740q0 -117 -43 -206.5t-133 -151.5q-170 -115 -443 -115q-279 0 -440 115q-178 125 -178 358zM571 487q0 -112 129 -112t129 112v662q0 111 -129 111t-129 -111v-662z" />
<glyph unicode="P" horiz-adv-x="1394" d="M100 0v1636h613q264 0 434 -116q186 -125 186 -349v-143q0 -223 -184 -354q-168 -125 -436 -125h-123v-549h-490zM590 942h117q170 0 170 150q0 149 -168 149h-2h-117v-299z" />
<glyph unicode="Q" horiz-adv-x="1423" d="M82 442v744q0 231 180 358q166 117 443 117q274 0 440 -119q176 -129 176 -356v-744q0 -45 -5 -81.5t-18 -67.5l148 -98l-262 -246l-127 84q-135 -59 -352 -60q-276 0 -443 113q-180 125 -180 356zM571 487q0 -49 36 -80.5t95 -31.5q129 0 129 112v660q0 113 -129 113 q-131 0 -131 -113v-660z" />
<glyph unicode="R" horiz-adv-x="1464" d="M100 0v1636h637q262 0 432 -108q186 -123 187 -342v-76q0 -291 -303 -418l411 -692h-534l-340 631v-631h-490zM590 963h125q170 0 170 139t-170 139h-125v-278z" />
<glyph unicode="S" horiz-adv-x="1378" d="M49 1090v81q0 25 4 27q4 98 49 178t127 142q155 118 390 118h4h581v-395h-559q-104 0 -104 -90t106 -92l137 -8q254 -12 383 -119q166 -145 166 -326v-160q0 -207 -196 -331q-176 -115 -424 -115h-621v403h598q162 0 162 103v49q0 104 -129 104h-76l-94 5 q-213 12 -356 124q-147 123 -148 302z" />
<glyph unicode="T" horiz-adv-x="1341" d="M53 1241v395h1237v-395h-375v-1241h-487v1241h-375z" />
<glyph unicode="U" horiz-adv-x="1421" d="M94 446v1190h490v-1149q0 -49 34.5 -80.5t94.5 -31.5q129 0 129 112v1149h489v-1187q0 -233 -176 -361q-164 -115 -442 -115q-279 0 -441 115q-178 125 -178 358z" />
<glyph unicode="V" horiz-adv-x="1456" d="M-2 1634h545l182 -958l188 958h543l-452 -1634h-553z" />
<glyph unicode="W" horiz-adv-x="1923" d="M29 1634h454l156 -964l156 964h335l152 -964l156 964h456l-383 -1634h-424l-124 659l-132 -659h-423z" />
<glyph unicode="X" horiz-adv-x="1568" d="M12 0l512 889l-426 747h494l192 -413l201 413h488l-431 -749l514 -887h-542l-230 477l-227 -477h-545z" />
<glyph unicode="Y" horiz-adv-x="1290" d="M-14 1636h489l164 -575l166 575h500l-418 -934v-702h-492v700z" />
<glyph unicode="Z" horiz-adv-x="1372" d="M49 0v344l674 897h-617v395h1180v-356l-639 -877h639v-403h-1237z" />
<glyph unicode="[" horiz-adv-x="856" d="M88 -430v2066h696v-299h-327v-1464h327v-303h-696z" />
<glyph unicode="\" horiz-adv-x="1064" d="M10 1636h307l738 -1636h-305z" />
<glyph unicode="]" horiz-adv-x="856" d="M63 -127h336v1464h-336v299h707v-2066h-707v303z" />
<glyph unicode="^" horiz-adv-x="1290" d="M23 727l495 909h256l496 -909h-340l-285 553l-283 -553h-339z" />
<glyph unicode="_" horiz-adv-x="1429" d="M-18 -125h1464v-235h-1464v235z" />
<glyph unicode="`" horiz-adv-x="745" d="M33 1636h469l223 -280h-365z" />
<glyph unicode="a" horiz-adv-x="1312" d="M66 360q0 250 280 342q14 4 57 13.5t115 25.5q74 16 116 24.5t52 8.5q35 4 57.5 8t30.5 6q49 20 49 56q0 41 -57 41h-586v301h670q174 0 280 -72q115 -78 115 -225v-889h-692q-223 0 -346 84q-141 92 -141 276zM489 383q0 -49 58 -49h262v168l-250 -72q-70 -20 -70 -47z " />
<glyph unicode="b" horiz-adv-x="1292" d="M90 0v1636h434v-450h260q246 0 367 -197q94 -150 94 -385v-63q0 -76 -7 -130.5t-19 -93.5q-102 -317 -422 -317h-707zM524 334h148q63 0 98 41l6 6q14 10 20.5 40t10.5 77q3 8 3 13l-1 13v11v157q-2 4 -2 19v10q-12 104 -31 125l-14 12q-33 27 -80 27h-158v-551z" />
<glyph unicode="c" horiz-adv-x="1021" d="M47 551v74q0 244 100 379q133 182 351 182h471v-301h-367q-49 0 -72 -29q-14 -18 -32 -68q-12 -74 -13 -139v-86q0 -115 50 -209q18 -20 67 -20h367v-334h-471q-244 0 -361 180q-90 139 -90 371z" />
<glyph unicode="d" horiz-adv-x="1296" d="M49 541v63q0 135 23 238q45 179 219 288q86 55 221 56h260v450h436v-1636h-708q-156 0 -275 94q-106 86 -149 223q-12 41 -19.5 95.5t-7.5 128.5zM492 528q0 -29 12 -102q18 -92 123 -92h145v551h-151q-51 0 -84 -27l-15 -12q-18 -29 -26 -125v-29q-4 -4 -4 -24v-140z " />
<glyph unicode="e" d="M55 541v90q0 23 2 24q27 254 152 387q154 162 428 162q289 0 434 -166q133 -152 133 -403v-203h-704v-12q2 -2 2 -14q18 -72 100 -72h531v-334h-631q-320 0 -420 317q-27 88 -27 224zM489 705h316q0 12 -4 30.5t-8 48.5q-2 10 -13.5 26.5t-29.5 41.5q-49 33 -105 33 q-156 0 -156 -180z" />
<glyph unicode="f" horiz-adv-x="854" d="M90 0v1112q0 66 4 117t12 96q39 174 193 262q86 49 231 49h310v-303h-195q-68 0 -88 -24q0 -2 -4 -6q-20 -20 -27 -125l-2 -62v-90h269v-293h-269v-733h-434z" />
<glyph unicode="g" horiz-adv-x="1302" d="M55 541v63q0 137 23 238q43 186 225 288q92 55 232 56h673v-1163q0 -166 -88 -291q-115 -160 -358 -160l-633 -2v321h539q35 0 56 7.5t34 17.5q14 14 14 80v4h-268q-229 0 -352 178q-96 150 -97 363zM489 563q0 -158 52 -209q20 -20 69 -20h162v551h-162q-90 0 -108 -97 q-12 -61 -13 -139v-86z" />
<glyph unicode="h" horiz-adv-x="1296" d="M90 0v1636h434v-450h279q229 0 356 -178q27 -35 31 -56q12 -29 19.5 -86t7.5 -149v-717h-441v741q0 143 -129 144h-123v-885h-434z" />
<glyph unicode="i" horiz-adv-x="612" d="M90 0v1186h434v-1186h-434zM90 1294v342h434v-342h-434z" />
<glyph unicode="j" horiz-adv-x="790" d="M27 -109h108q129 0 129 144v1151h432v-1163q0 -449 -448 -451l-221 -2v321zM264 1294v342h432v-342h-432z" />
<glyph unicode="k" horiz-adv-x="1306" d="M90 0v1636h434v-839l303 389h480l-418 -443q137 -20 217 -91.5t102 -192.5q6 -25 8.5 -49.5t2.5 -49.5v-360h-443v379q0 43 -37 68.5t-90 25.5h-125v-473h-434z" />
<glyph unicode="l" horiz-adv-x="624" d="M90 0v1636h434v-1636h-434z" />
<glyph unicode="m" horiz-adv-x="1859" d="M90 0v1186h1213q156 0 251 -53q138 -75 181 -177q34 -84 34 -252v-10v-694h-438v750q0 82 -14 102q-23 33 -109 33h-73v-885h-412v743q0 80 -16 107q-23 35 -107 35h-76v-885h-434z" />
<glyph unicode="n" horiz-adv-x="1296" d="M90 0v1186h662q135 0 256 -58q135 -61 170 -165q36 -108 36 -272v-9v-682h-434v741q0 143 -131 144h-125v-885h-434z" />
<glyph unicode="o" d="M53 543v94q0 23 2 25q51 542 576 542h2q287 0 438 -166q141 -152 141 -401v-94q0 -215 -143 -398q-122 -157 -432 -157h-4v-2q-289 4 -438 157q-141 147 -142 400zM393 532q0 -41 14.5 -78.5t43 -66.5t71.5 -46t101 -17q57 0 101 17t73.5 46t44 67t14.5 78v154 q0 86 -58.5 149.5t-174.5 63.5q-115 0 -172.5 -60.5t-57.5 -146.5v-160z" />
<glyph unicode="p" horiz-adv-x="1290" d="M90 -430v1616h678q248 0 371 -185q102 -152 102 -374v-49q0 -141 -18 -234q-43 -199 -219 -293q-94 -51 -211 -51h-269v-430h-434zM524 334h144q55 0 96 39l10 8q10 8 16.5 35.5t12.5 75.5q2 10 2 14v6v4v197q0 14 -2 32.5t-6 38.5q-23 98 -138 99h-135v-549z" />
<glyph unicode="q" horiz-adv-x="1290" d="M49 578v49q0 233 109 379q131 180 379 180h667v-1616h-436v430h-268q-174 0 -287 100q-164 145 -164 478zM487 526q0 -10 1 -20t4 -25q12 -90 26 -100l12 -10l13 -11q32 -26 79 -26h3h143v549h-139q-76 0 -111 -41q-31 -49 -31 -129v-187z" />
<glyph unicode="r" horiz-adv-x="921" d="M90 0v1186h402v-139q141 139 317 139h70v-371l-60 -6q-29 0 -47 -8q-33 -6 -68.5 -22.5t-78.5 -47.5q-80 -59 -93 -110l-6 -21q-2 -2 -2 -22v-578h-434z" />
<glyph unicode="s" horiz-adv-x="1200" d="M45 817q0 160 117 264q119 104 313 105h590v-303h-530q-61 0 -62 -58q0 -41 49 -49h223q86 0 159 -24.5t130 -77.5q117 -109 117 -252v-82q0 -137 -147 -250q-115 -90 -310 -90h-616v334h547q94 0 94 51v10q0 49 -76 49h-186q-94 0 -170 28t-130.5 78t-83 118.5 t-28.5 148.5z" />
<glyph unicode="t" horiz-adv-x="968" d="M43 883v303h184v342h435v-342h247v-303h-247v-396q0 -111 10 -120l16 -15q20 -18 84 -18h137v-334h-258q-231 0 -358 176q-66 88 -66 199v508h-184z" />
<glyph unicode="u" horiz-adv-x="1296" d="M82 479v707h438v-711q0 -141 127 -141h127v852h434v-1186h-698q-59 0 -111.5 13.5t-101.5 37.5q-191 100 -209 262q-6 43 -6 166z" />
<glyph unicode="v" horiz-adv-x="1361" d="M12 1186h500l168 -697l172 697h498l-416 -1186h-506z" />
<glyph unicode="w" horiz-adv-x="2052" d="M14 1186h496l168 -701l192 701h318l188 -701l168 701h498l-418 -1186h-459l-135 477l-143 -477h-459z" />
<glyph unicode="x" horiz-adv-x="1355" d="M0 0l440 616l-362 570h440l160 -289l160 289h444l-362 -572l436 -614h-518l-160 303l-156 -303h-522z" />
<glyph unicode="y" horiz-adv-x="1341" d="M8 1186h484l190 -727l178 727h483l-464 -1319q-102 -293 -437 -295l-307 -2v321h164q8 0 43 7q115 12 115 90q0 16 -15 53z" />
<glyph unicode="z" horiz-adv-x="1124" d="M49 0v268l483 615h-440v303h967v-281l-457 -571h457v-334h-1010z" />
<glyph unicode="{" horiz-adv-x="862" d="M43 469v262q197 8 197 166v424q0 139 69 221q82 94 236 94h272v-256h-49q-147 0 -147 -131v-387q0 -248 -250 -248v-28q70 0 120 -15.5t78 -50.5q51 -57 52 -182v-379q0 -125 147 -131l49 -2v-256h-272q-154 0 -232 94q-74 86 -73 219v422q0 164 -197 164z" />
<glyph unicode="|" horiz-adv-x="509" d="M100 0v1636h306v-1636h-306z" />
<glyph unicode="}" horiz-adv-x="862" d="M45 -174h49q147 0 148 133v379q0 248 260 248v28q-260 0 -260 248v387q0 131 -148 131h-49v256h283q295 0 295 -315v-424q0 -158 196 -166v-262q-197 0 -196 -164v-424q0 -307 -295 -309l-283 -2v256z" />
<glyph unicode="~" horiz-adv-x="1361" d="M10 190q39 170 236 295q100 66 258 66q59 0 176 -47q57 -25 101 -35t75 -10q135 0 164 73h332q-20 -86 -79 -158.5t-153 -131.5q-104 -68 -264 -68q-59 0 -184 43q-61 23 -103 34t-65 11q-135 0 -162 -72h-332z" />
<glyph unicode="&#xa1;" horiz-adv-x="673" d="M92 0v586l92 534h295l101 -534v-586h-488zM106 1280v356h459v-356h-459z" />
<glyph unicode="&#xa2;" horiz-adv-x="944" d="M43 596q0 172 72 309q88 162 270 197v84h385v-78h123v-274h-338q-47 0 -59 -17l-11 -10l-10 -14q-14 -18 -24 -115q-4 -4 -5 -21v-75q0 -113 29 -148l10 -12l11 -10q8 -20 59 -21h338v-299h-123v-92h-385v98q-238 41 -317 289q-25 74 -25 209z" />
<glyph unicode="&#xa3;" horiz-adv-x="75" d="M12 47q0 6 4 10t17 4q14 0 18 -4t4 -10t-2 -8q-4 -4 -8 -4v6q2 0 4 2q2 0 2 4t-2 4q0 4 -4 4q-2 2 -10 2l4 -4q0 -2 1 -3t1 -3q0 -4 -4 -8t-10 -4t-9 2q-4 0 -4 4q-2 2 -2 6zM12 76v4h33q0 2 -1 3t-1 3l-4 4h6q0 -2 4 -6l6 -6v-2h-43zM12 115q0 4 4 8t17 4h12q4 -2 8 -6 q2 -2 2 -6t-2 -6q0 -4 -4 -5q0 -2 -6 -4h-10q-8 0 -10 2q-4 0 -9 4q-2 2 -2 9zM12 133v29q4 0 4 -2q2 0 3 -1t4 -1q4 -4 6 -8l8 -9q2 -2 6 -2t6 2q2 0 2 6q-2 4 -2 5q-4 4 -6 4v4q4 0 8 -4q4 -5 4 -9q0 -6 -4 -10t-8 -4q-2 0 -4 2q-2 0 -3 1t-3 1q-4 4 -6 8l-7 7l-2 2v-21 h-6zM12 184v4h19h6l2 2v5q0 4 -2 6q0 2 -8 2h-17v6h31v-6h-4q6 -4 6 -8q0 -2 -1 -3.5t-1 -3.5t-1 -2t-1 -2h-4h-6h-19zM12 215v4q2 2 4 2q-2 0 -2 2t-1 2t-1 2v4q0 6 2 9q2 2 6 2h5q2 0 2 -1t2 -1v-4q2 -2 2 -5q0 -8 2 -10q4 0 6 2v6v4l-4 5v4l4 -2l4 -4q0 -2 1 -3.5t1 -5.5 q0 -2 -1 -3t-1 -3t-1 -2t-1 -2h-4h-4h-6q-8 0 -11 -2h-4zM12 256v4h31v-4h-4l4 -4l2 -2q0 -2 -1 -3t-1 -3l-6 2q2 2 2 4t-2 2q0 2 -2 2q-2 2 -6 2h-17zM12 266v6h4q-2 0 -2 2t-1 2t-1 3v6q0 6 2 8t6 2h5l4 -4v-4q2 0 2 -4q0 -6 2 -9h6v7v6q-2 0 -2 1t-2 1v6l4 -2q4 -4 4 -6 t1 -3t1 -3t-1 -3.5t-1 -3.5l-2 -4q-2 0 -2 -1t-2 -1h-4h-6h-11q-2 0 -4 -2zM12 301v6h21h4q2 2 2 6v4q-2 2 -4 2q-2 2 -6 3h-17v4h43v-4h-16q6 -4 6 -11q0 -2 -1 -3t-1 -3q-2 0 -2 -1t-2 -1q-2 -2 -6 -2h-21zM12 334v6h31v-6h-31zM12 358q0 6 2 9q4 4 9 4v-6q-4 0 -5 -3 q-2 0 -2 -4t2 -6l2 -2q2 0 5 2v2q0 2 2 4q0 6 2 7l2 4q2 0 2 1t2 1t2 -1t2 -1l2 -2t2 -5v-4v-6l-2 -4q-2 0 -3 -1t-3 -1v6q2 0 4 2v4v4q-2 2 -4 3q-2 -2 -2 -3l-2 -4q0 -4 -1 -5t-1 -3t-1 -2t-1 -2h-4h-7l-2 4q-2 2 -2 8zM12 375v6h4q-2 0 -2 2t-1 2t-1 2v6q0 6 2 8q2 0 3 1 t3 1q4 0 5 -2q2 0 4 -2v-4q2 0 2 -4q0 -8 2 -10q2 0 3 1t3 1v6v6q-2 0 -2 1t-2 1v4q4 0 4 -2q4 0 4 -4v-6v-6l-2 -4q-2 -2 -4 -2h-4h-8h-9q-2 0 -2 -1t-2 -1zM12 424q0 6 2 10q0 2 4 6q2 0 3.5 1t5.5 1v-6q-4 0 -4 -2q-4 0 -5 -4q0 -2 -1 -3t-1 -3q0 -4 2 -6l2 -2q2 -2 5 -2 q2 0 4 2q0 2 2 2q0 4 2 8q0 4 1 5t1 3l4 4l4 2q6 0 6 -2q4 0 4 -6q2 -2 2 -6q0 -6 -2 -8q0 -2 -4 -6q-2 -2 -6 -2v6q4 0 6 2q0 2 1 3t1 5q0 2 -1 3t-1 3q-2 2 -4 2h-4q-2 -2 -4 -10q0 -4 -1 -5t-1 -3t-4 -6q-2 0 -3 -1t-3 -1t-3.5 1t-3.5 1q-4 4 -4 6q-2 2 -2 8zM12 463v6h4 q-2 0 -2 2t-1 2t-1 2v6q0 6 2 8t6 3h5l4 -5v-4q2 0 2 -4q0 -6 2 -8h6v6v6q-2 0 -2 1t-2 1v7q4 -4 4 -5q4 0 4 -4v-6v-6l-2 -4q-2 0 -2 -1t-2 -1h-4h-8h-9q-2 0 -4 -2zM12 498v6h21h4q2 2 2 6v4q-2 0 -2 1t-2 1t-2 1t-4 1h-17v4h43v-4h-16q4 -4 4 -10v-6q-2 -2 -4 -2 q-2 -2 -6 -2h-21zM12 526v4v5q2 2 4 2q0 2 7 2h16v4h4v-4h8l2 -7h-10v-4h-4v4h-19h-2l-2 -2v-2zM12 547v4h4q-4 8 -4 10v6q2 0 2 1t2 1q0 2 4 2h5h18v-4h-16q-4 0 -7 -2q-2 0 -2 -2l-2 -2q0 -4 2 -6l2 -2h7h16v-6h-31zM12 586v6h31v-6h-4l4 -2v-4v-5l-6 3l2 2q0 2 -2 4 q0 2 -2 2h-6h-17zM12 600v4h31v-4h-31zM12 612v4h21q2 0 4 2q2 0 2 3v2q0 4 -2 6h-2l-4 2h-19v4h21q4 0 4 2q2 0 2 4v4q-2 0 -2 1t-2 1t-3 1t-3 1h-17v4h31v-4h-4l4 -4v-6v-4l-4 -4q4 -2 4 -10q0 -4 -2 -7q-2 -2 -8 -2h-21zM12 657v7l13 4v18l-13 4v6l43 -16v-6zM12 731 q0 8 2 10q2 4 4 5.5t5 3.5q8 4 10 4q4 0 12 -4q6 -2 8 -9q2 -2 2 -10q0 -6 -2 -10q-2 -6 -8 -8q-4 -2 -10 -2q-8 0 -12 2q-2 2 -4.5 3t-4.5 5q-2 2 -2 10zM16 47l2 -4q4 -4 9 -4q2 0 6 4q2 0 2 4q0 6 -2 6q-4 4 -6 4q0 -2 -2 -2h-5q-2 -2 -2 -4q-2 0 -2 -4zM16 115 q0 -6 4 -6q2 -2 13 -3q12 0 14 3q4 0 4 6q0 4 -4 4q-4 4 -14 4q-4 -2 -6 -2h-7q-4 -4 -4 -6zM16 231q0 -4 2 -6l2 -2t7 -2h2q-2 2 -2 8l-2 4q0 2 -2 3q0 2 -3 2q-2 0 -2 -2q-2 0 -2 -5zM16 283q0 -2 2 -4q2 -4 2 -5h7h2q-2 2 -2 9l-2 4q0 2 -2 2h-3h-2q-2 -2 -2 -6zM16 391 q0 -4 2 -4l2 -4q2 0 3.5 -1t3.5 -1h2q-2 2 -2 10q0 2 -1 2t-1 2t-2 2h-3q-2 0 -2 -2q-2 0 -2 -4zM16 475l4 -4h7h2q-2 0 -2 8l-2 4q0 2 -2 2h-3q-2 0 -2 -2q-2 0 -2 -4v-4zM16 731q0 -6 2 -8q2 -4 7 -8q4 0 5 -1t5 -1q2 0 4 1t4 1q4 4 6 8q2 2 2 8t-2 8q-2 4 -6 9 q-2 2 -10 2q-4 0 -8 -2q-4 -4 -7 -9q-2 -2 -2 -8zM20 731q0 4 5 8q4 4 8 4t5 -1t3 -1l4 -4v-6v-6q-4 -4 -6 -4v4l2 2q2 2 2 4t-1 3t-1 3q-2 0 -3 1t-5 1q-2 0 -3 -1t-3 -1q-2 -2 -2 -6q0 -2 2 -4q0 -2 4 -2l-2 -4q-2 0 -6 4q0 2 -1.5 3t-1.5 3zM31 670l10 4q8 4 10 4 q-4 0 -5 1t-3 1l-12 4v-14zM49 334v6h6v-6h-6zM49 600v4h6v-4h-6z" />
<glyph unicode="&#xa4;" horiz-adv-x="1499" d="M78 184l131 125q-82 141 -82 291q0 154 86 293l-135 123l227 207l135 -123q141 78 320 78q182 0 317 -78l137 123l228 -207l-139 -123q90 -133 90 -293q0 -156 -88 -291l137 -125l-228 -198l-137 118q-143 -78 -317 -77q-168 0 -320 75l-135 -116zM492 602 q0 -111 67 -184q76 -82 201 -82q127 0 198 80q68 74 68 186q0 117 -63 189q-70 82 -203 81q-125 0 -201 -84q-68 -74 -67 -186z" />
<glyph unicode="&#xa5;" horiz-adv-x="1429" d="M20 1636h494l191 -608l190 608h500l-351 -776h209v-348h-301v-512h-493v512h-301v348h204z" />
<glyph unicode="&#xa6;" horiz-adv-x="854" d="M-139 -109h106q106 0 123 109v1112q0 66 4 117t12 96q39 174 193 262q86 49 231 49h310v-303h-195q-68 0 -88 -24q0 -2 -4 -6q-27 -27 -27 -125l-2 -1155v-23q0 -422 -448 -428l-215 -2v321z" />
<glyph unicode="&#xa7;" horiz-adv-x="1431" d="M76 635v565q0 209 194 332q168 104 426 104h492v-395h-469q-96 0 -98 -2q-61 -10 -62 -53q0 -43 47 -62q16 -8 88 -22q14 -6 38 -10.5t59 -14.5l167 -49l62 -22q170 -59 255 -166t85 -269v-557q0 -199 -201 -325q-182 -117 -424 -117l-569 -2v403h565q143 0 143 70 q0 49 -104 72l-15 3t-3 1q-121 25 -214.5 50.5t-162.5 55.5q-299 131 -299 410zM543 625q0 -70 86 -101l59 -18l88 -31l119 -39v168q0 74 -100 107l-148 49h-4l-100 28v-163z" />
<glyph unicode="&#xa8;" horiz-adv-x="1007" d="M45 1370v266h385v-266h-385zM575 1370v266h383v-266h-383z" />
<glyph unicode="&#xa9;" horiz-adv-x="1730" d="M59 782q0 166 62.5 311.5t172 255t256 172t312.5 62.5t311.5 -62.5t255 -172t172 -255t62.5 -311.5t-62.5 -312t-172 -256t-255 -172t-311.5 -62t-312.5 62t-256 172t-172 256t-62.5 312zM211 782q0 -135 51 -253.5t139 -207t207 -139.5t254 -51t253 51t206 139.5 t139 207t51 253.5t-51 253t-139 206t-206 139.5t-253 51.5t-254 -51.5t-207 -139.5t-139 -205.5t-51 -253.5zM489 762v51q0 88 17.5 143.5t52.5 102.5q92 127 244 127h330v-211h-256q-37 0 -52 -21q-4 -4 -10 -17t-12 -30q-4 -25 -6 -49t-2 -47v-61q0 -80 34 -146 q12 -14 48 -14h256v-234h-330q-168 0 -252 127q-31 47 -46.5 122t-15.5 157z" />
<glyph unicode="&#xaa;" horiz-adv-x="856" d="M41 1114q0 207 352 256l47 6q0 2 4 2q8 0 15 2q66 0 65 39q0 25 -37 25h-372v192h428q113 0 176 -45q76 -51 76 -143v-563h-445q-309 0 -309 229zM59 657v142h736v-142h-736zM307 1126q0 -33 37 -32h170v108l-160 -45q-47 -8 -47 -31z" />
<glyph unicode="&#xab;" horiz-adv-x="999" d="M57 471v217l381 277v-279l-215 -115l215 -98v-278zM526 471v217l381 277v-279l-215 -115l215 -98v-278z" />
<glyph unicode="&#xac;" horiz-adv-x="903" d="M70 633v241h737v-438h-242v197h-495z" />
<glyph unicode="&#xad;" horiz-adv-x="630" d="M53 631v260h504v-260h-504z" />
<glyph unicode="&#xae;" horiz-adv-x="1730" d="M59 782q0 166 62.5 311.5t172 255t256 172t312.5 62.5t311.5 -62.5t255 -172t172 -255t62.5 -311.5t-62.5 -312t-172 -256t-255 -172t-311.5 -62t-312.5 62t-256 172t-172 256t-62.5 312zM211 782q0 -135 51 -253.5t139 -207t207 -139.5t254 -51t253 51t206 139.5 t139 207t51 253.5t-51 253t-139 206t-206 139.5t-253 51.5t-254 -51.5t-207 -139.5t-139 -205.5t-51 -253.5zM512 397h266v303l201 -303h313l-241 334q178 57 178 201v35q0 106 -109 166q-100 51 -254 51h-354v-787zM778 860v133h74q100 0 100 -65q0 -68 -100 -68h-74z" />
<glyph unicode="&#xaf;" horiz-adv-x="622" d="M-33 1401v235h676v-235h-676z" />
<glyph unicode="&#xb0;" horiz-adv-x="952" d="M43 1288q0 156 125 262q125 111 307 111q172 0 305 -111q127 -109 127 -262q0 -152 -127 -262q-129 -111 -305 -111q-182 0 -307 109q-125 104 -125 264zM274 1294q0 -35 16.5 -65.5t44 -53t63.5 -37t75 -14.5q41 0 78 13.5t64.5 36t43 53t15.5 67.5t-15.5 68t-43 54.5 t-64.5 36.5t-78 13q-84 0 -141.5 -50t-57.5 -122z" />
<glyph unicode="&#xb1;" horiz-adv-x="1396" d="M78 0v358h1241v-358h-1241zM78 674v342h422v256h397v-256h422v-342h-422v-256h-397v256h-422z" />
<glyph unicode="&#xb2;" horiz-adv-x="2228" />
<glyph unicode="&#xb3;" horiz-adv-x="2234" />
<glyph unicode="&#xb4;" horiz-adv-x="745" d="M31 1356l221 280h471l-328 -280h-364z" />
<glyph unicode="&#xb5;" horiz-adv-x="1306" d="M90 -430v1616h436v-711q0 -141 129 -141h125v852h437v-1186h-469q-160 0 -222 53v-483h-436z" />
<glyph unicode="&#xb6;" horiz-adv-x="1132" d="M31 1288q0 137 106 244q106 104 271 104h634v-1636h-235v1448h-164v-1448h-235v940q-164 0 -271 104q-106 106 -106 244z" />
<glyph unicode="&#xb7;" horiz-adv-x="622" d="M72 649q0 43 18.5 81t51 66.5t75.5 45t92 16.5q106 0 175 -58.5t69 -150.5q0 -43 -19.5 -81t-52 -65.5t-78 -44t-94.5 -16.5t-92 16.5t-74.5 45t-51 66.5t-19.5 79z" />
<glyph unicode="&#xb8;" horiz-adv-x="622" d="M27 -348l57 108h223q25 0 39 12.5t16 30.5q6 16 -4 26.5t-30 10.5l-201 -2l98 185h135l-43 -82h33q68 0 119 -35t51 -90v-15q0 -68 -80 -112q-61 -35 -155 -35z" />
<glyph unicode="&#xb9;" horiz-adv-x="1525" d="M90 0v1112q0 66 4 117t12 96q39 174 193 262q86 49 231 49h310v-166q117 166 360 166h309v-303h-194q-68 0 -88 -24q0 -2 -4 -6q-20 -20 -27 -125l-2 -62v-90h268v-293h-268v-733h-434v733h-236v-733h-434zM524 1026h236v86q0 70 3 123t13 90l4 8h-135q-68 0 -88 -24 q0 -2 -4 -6q-20 -20 -27 -125l-2 -62v-90z" />
<glyph unicode="&#xba;" horiz-adv-x="856" d="M59 657v142h736v-142h-736zM59 1231v65q0 352 369 353q369 0 369 -353v-65q0 -18 -2 -21q-23 -164 -95 -245q-86 -93 -272 -93q-166 0 -254 84t-111 254q-4 2 -4 21zM332 1214q0 -57 22 -86q2 -4 4 -6l4 -4q20 -31 66 -31q43 0 70 31q0 6 5 10.5t5 12.5q8 27 11 45t5 28 v105q-4 25 -8 44t-8 30q0 8 -5 12t-5 10q-27 31 -70 31q-45 0 -66 -31l-8 -10q-23 -29 -22 -86v-105z" />
<glyph unicode="&#xbb;" horiz-adv-x="999" d="M90 195v278l213 98l-213 115v279l379 -277v-217zM559 195v278l213 98l-213 115v279l381 -277v-217z" />
<glyph unicode="&#xbc;" horiz-adv-x="2942" />
<glyph unicode="&#xbd;" horiz-adv-x="1523" />
<glyph unicode="&#xbf;" horiz-adv-x="1048" d="M25 815q0 8 2 12q0 4 2 7l4 4q4 4 6 4q2 2 6 2h2h4q4 0 6 -2q2 0 6 -4q2 -2 2.5 -3t2.5 -4q0 -2 1 -3t1 -3v-10q0 -2 -1 -3t-1 -3l36 -39l70 90h62v2q0 2 4 6t6 4q0 2 4 2h2h2q4 0 6 -2q2 0 6 -4q0 -2 1 -3t1 -3q2 0 2 -4t-2 -6q0 -4 -4 -8q-2 -2 -3 -2t-3 -2h-6h-6l-4 4 q-2 2 -6 8h-58l-67 -88l51 -51h147l2 82l-4 2q-4 4 -6 8q-2 2 -2 4v6v8q4 4 4 6q4 4 8 5q2 2 6 2h2h3h2q4 0 6 -2q6 0 6 -5l6 -6v-8v-6l-2 -4t-6 -8q-2 0 -2 -1t-2 -1l-2 -86l104 -109v-221h-24v219l-33 35h-56l-18 -19q2 -2 2 -3t2 -3v-4v-6l-4 -8q-2 -2 -3 -2t-3 -2h-6h-6 q-2 2 -3 2t-4 2q-4 4 -6 8v6q0 2 2 4q0 2 1 3t1 3q4 4 7 4q4 2 4 3h4h2q2 0 2 -1.5t2 -1.5l22 23h50l-52 53h-161l-103 103h-4q-2 0 -4 1t-4 1q-2 2 -3 2t-3 2q-4 4 -4 6q-2 2 -2 3t-2 3zM143 1032q0 2 2 4q0 2 2 4t5 2l2 2h2h2q2 0 2 -1t2 -1t2 -1t2 -1q0 -2 1 -2t1 -2h74 l61 -43v-35l37 -36l2 -2h41l102 -103v-438h-24v330l-58 57l-2 -2l-4 2q-4 0 -4 2l-2 2q0 2 -1 2t-1 2v4q0 2 1 2t1 2l2 2l2 2q2 0 2 1t2 1h2h2l3 -2q2 0 4 -2l2 -2v-4v-4v-2l49 -51v94l-86 86h-37l-8 8l-33 35h-82q-2 -2 -2 -6l-6 -6q-2 -2 -3 -2t-3 -2q-2 0 -4 -1t-4 -1 t-4.5 1t-4.5 1q-2 2 -3 2t-3 2l-6 6q0 2 -1 3t-1 3v12q2 2 2 7l4 4t6 4q2 2 8 2h3h4q4 0 6 -2q2 0 6 -4l4 -4v-5h80v29l-55 39h-70l-4 -4q-2 -2 -4 -2h-4h-4q-2 2 -3.5 2t-3.5 4v2q-2 2 -2 4zM147 1030l3 -2q0 -4 4 -4h2h4q2 0 2 2q2 0 2 4v2v2q0 2 -2 2q0 2 -2 2q0 2 -4 2 q-2 0 -2 -2q-2 0 -4 -2l-3 -2v-2v-2zM242 852l6 -6h4h4l4 4q2 0 2 4q2 0 2 4q0 2 -2 2q0 4 -2 4l-2 2t-4 2h-2h-2q-2 0 -2 -2q-2 0 -4 -2t-2 -4v-2v-4v-2zM276 600q2 -2 3 -2q0 -4 6 -6h4h4q4 4 4 6q2 0 2 2v4v2q0 2 -1 2t-1 2l-4 2l-2 2h-2h-2q-2 0 -2 -1t-2 -1l-2 -2 l-5 -4v-2v-4zM315 1047v4v4q0 2 1 2t1 2q4 4 5 4h4h2h2h4l4 -4q2 -2 2 -4l2 -2h31l28 26v45l-2 2q-2 0 -4 2q0 2 -1 2t-1 3q0 2 -1 2t-1 2v4q0 2 1 2t1 2q2 2 2 4q2 0 2 1t2 1t4 2h3h2q2 -2 4 -2q2 -2 4 -2q0 -2 1 -2t1 -2t2 -4v-4q-2 -2 -2 -4t-1 -2.5t-1 -2.5q-2 -2 -6 -2 v-51l-11 -8l93 -86l36 37l-32 33v71l-33 33v33l-2 2q-2 0 -3 1t-3 1q-2 2 -2 3t-2 3q-2 0 -2 6q-2 2 -3 6q0 2 1.5 3t1.5 4q0 2 4 6l6 6q2 0 3 1t3 1h2h2h2q2 0 3 -1t3 -1l6 -6q4 -4 4 -6q2 -2 2 -7v-8q-2 0 -2 -4l-6 -6q-2 -2 -6 -2v-29l12 -14l23 22v91q-4 0 -4 2 q-6 0 -6 4q-4 0 -4 4q-2 2 -2 6v6q0 4 2 6q0 4 4 4q0 4 4 4q2 2 6 2h2h4q2 0 4 -2q2 0 6 -4l4 -4q0 -4 2 -6v-6q-2 -2 -2 -6l-4 -4t-6 -4t-2 -1t-2 -1v-93l-24 -24l16 -15v-73l29 -29l22 23v133q-4 0 -4 2q-4 4 -6 8v4q0 2 2 4q0 4 2 6q2 0 2 1t2 1l4 2h2h2h2q2 0 4 -2 q2 0 2 -1t2 -1q2 -2 2.5 -3t2.5 -3v-4v-6l-2 -2q0 -4 -5 -4q0 -2 -4 -2v-138l-69 -71l41 -37v-557h-25v555l-51 47h-55v-2q-2 -2 -2 -4q-2 0 -2 -1t-3 -1h-4h-4l-4 2l-2 2q0 2 -1 2t-1 2v4q0 2 2 4q0 2 2 2l2 2t4 2h2h2q2 0 2 -2q2 0 5 -2l2 -2v-4h49l-74 68l-8 -9h-37 q0 -4 -4 -4l-4 -4h-4h-4q-2 2 -5 2q0 2 -1 2t-1 2q-2 2 -2 5zM322 1047l4 -5h2h4q0 2 1 2t1 3l2 2v2v2l-2 2l-2 2h-4h-2l-2 -2l-2 -2v-2v-2v-2zM453 1204q0 -4 4 -8q2 0 3 -1t3 -1t3 -1t3 -1t2 1t2 1q4 0 4 2q2 2 3 2t3 2v4l2 4q0 4 -2 6q0 2 -1 3.5t-1 3.5q-2 0 -3 1t-3 1 q-2 2 -4 2h-2h-4h-4l-4 -4q-2 -2 -2 -3t-2 -4v-4v-6zM555 1192q2 -2 2 -4q2 0 2 -1t2 -1h4h2q2 0 6 4v2v4v2q0 2 -2 4q-2 0 -2 2h-4h-2h-4l-2 -2q0 -2 -1 -2t-1 -2v-2v-4zM571 379v520l93 92v31l-29 2l-25 23v22l-2 2l-4 2l-4 4q0 2 -1 3t-1 3v4q2 2 2 5l4 4q2 2 4 2l2 2h4 h2q2 -2 5 -2q2 -2 4 -2q0 -2 1 -2t1 -2t1 -2t1 -3v-4q0 -4 -2 -6t-2 -4q-2 0 -3 -1t-4 -1v-22l21 -19h25v107l-41 39v114q-8 4 -11 6q-2 2 -4 3t-4 6q0 2 -1 3t-1 3q-2 4 -2 10q0 4 1 5t1 5q4 8 6 10q4 2 5 4.5t5 4.5q2 0 4.5 1t4.5 1h4h2h2h2q2 0 4 -1t4 -1q4 -2 10 -9 q2 -2 7 -10q2 -4 2 -10v-10q-4 -4 -5 -8l-6 -7q-4 -2 -5 -3t-5 -3h-2v-106l41 -41v-58l29 31v113l-4 2q-2 2 -2 4l-3 2v6q0 2 3 2v4l4 2h4h2h2h2l4 -2q0 -2 1 -2t1 -2v-2q2 -4 0 -6v-2q-2 -2 -2 -4q-2 0 -4 -2h-2v-117l-35 -35v-94l-86 -86v-102l35 34v39q-2 2 -4 2 q0 2 -1 2t-1 2t-2 3v6l2 2q0 2 2 2q0 2 1 2t1 2h4h2h2h2q2 -2 4 -2q0 -2 1 -2t1 -2v-2q2 -4 0 -6v-3l-2 -2q-2 -2 -4 -2v-45l-43 -43v-125l35 31v68l86 86v45l84 84v69l-2 2q-2 0 -2 2v3q-4 2 0 6v2q0 2 2 4t4 2l2 2h2h2q2 0 2 -1t2 -1q2 -2 4 -2v-4l2 -2v-6l-2 -3 q0 -2 -2 -2l-2 -2v-73l-31 -31h62l49 47v115h-2q-2 0 -3 1t-3 1q-2 4 -3 5t-3 5v6q0 4 2 6v4q0 2 2 2q4 4 8 7q2 0 4 2h4h2q2 -2 6 -2l6 -7q-2 0 5 -6q0 -4 2 -6q0 -2 -1 -3t-1 -3q0 -4 -2.5 -5t-4.5 -5q-2 0 -3 -1t-3 -1v-70l80 78l-2 4q-2 2 -2 6v6q0 2 2 4l2 4q4 4 6 5 q2 2 4 2h4h2q4 0 5 -2q2 0 3 -1t3 -1q2 -2 2 -3.5t2 -3.5q0 -4 2 -4v-6q-2 -2 -2 -6l-4 -4t-6 -4q-2 -2 -7 -2q-6 0 -8 2l-86 -88v-35l-43 -43h86l31 27q-4 0 -4 4q-2 2 -2 6q-2 2 -2 8t2 8l4 8q4 2 5 3t5 4q2 2 6 2h4h4q4 0 7 -2q4 -2 8 -7q4 -4 6 -8q0 -2 1 -4t1 -4t-1 -4 t-1 -4t-1 -3t-1 -3l-6 -6q-4 -4 -8 -5q-2 -2 -9 -2h-8l-37 -32h-28l16 -17h2l2 2l2 -2h4l4 -4l4 -4v-4q4 0 0 -4v-4l-4 -4l-4 -4h-6h-6l-4 4l-4 4v4v4v4l4 4v2l-19 19h-65h-80l-41 -39v-47l-22 -25l34 -35v2h7h2h4h6l6 -6q2 -2 2 -3t2 -3v-6v-6q0 -2 -1 -3t-1 -3 q-4 -4 -4 -5q-2 -2 -3 -2t-3 -2h-8h-7q-2 2 -3 2t-3 2l-4 5q0 2 -1 3t-1 3t-1 3t-1 3t1 3t1 3t4 6l-35 35l-57 -57v-68l-47 -41v-262h-25zM610 1315l2 -4t6 -8q2 0 3.5 -1.5t3.5 -1.5q2 -2 8 -2q4 0 8 2q2 0 6 5l4 4q2 2 2 6q2 2 2 6q0 2 -1 3t-1 3l-4 8q-4 4 -8 4 q-2 2 -6 2h-2h-4q-4 0 -6 -2q-6 0 -7 -4q-4 -4 -6 -8v-6v-6zM625 379v194l57 58v69q-4 0 -6 2q0 2 -1 2.5t-1 2.5t-2 4q0 2 2 4v4l6 6h4h2h2h4l4 -4l2 -2q0 -2 2 -4v-4q-2 -2 -2 -4t-1 -2t-1 -3l-4 -2l-2 -2v-59l109 109v73l59 58v4q-2 2 -2 4l2 4q0 2 1 3t1 3q2 0 3 1t3 1 l2 2h2h2h2q2 0 5 -2q2 0 2 -1t2 -1q2 -2 2 -6q2 0 2 -4v-4q-2 -2 -2 -4l-4 -5q-2 0 -2 -1t-2 -1h-5h-6l-57 -55v-59l25 24q-4 2 0 6v5l4 4q2 0 2 1t2 1q2 2 4 2h2h2h2q2 0 4 -2l4 -2q2 -2 2 -3t2 -3v-5v-6q0 -2 -2 -4q0 -2 -1 -2t-1 -2q-2 0 -3 -1t-3 -1q-2 -2 -6 -2h-2 l-74 -72h92l35 35q-2 2 -2 4t-2 4v9v8q2 4 6 8q2 6 8 6q2 2 9 2q2 2 4 2l4 -2q4 0 6 -2q4 0 8 -6q4 -4 6 -8q0 -2 1 -4t1 -4q0 -6 -2 -9q0 -4 -2 -6t-3 -4t-3 -4t-4 -2t-4 -2h-8h-11q-4 4 -8 6l-35 -35l23 -24h4h2h4h4q4 -4 6 -4q4 -4 4 -7q0 -2 1.5 -3t1.5 -3v-6 q0 -4 -3 -6q0 -2 -4 -6q-2 0 -6 -4h-8h-8q-4 4 -6 4q-2 2 -2 3t-2 3q0 2 -1 3t-1 3v6q2 2 2 6q2 2 2 5l-23 22h-98l-111 -113v-192h-24zM735 760l2 -4v-4q4 -4 8 -7h5h6l4 5q4 0 4 6v4v4l-2 4q-2 2 -3 2t-3 2h-4h-2h-2h-5l-4 -4q-2 -2 -2 -4t-1 -2t-1 -2zM860 885q0 -2 1 -2 t1 -2l2 -2q2 -2 4 -2h4h2q6 0 7 4l2 2v4v4l-2 2l-4 4h-5h-2h-4l-2 -2l-2 -4q-2 -2 -2 -4v-2zM883 1112q0 -2 2 -4q0 -4 4 -4q0 -2 4 -2q2 -2 6 -2t6 2q2 0 4 2l4 4v4q2 2 2 4t-1 3t-1 3t-1 2t-1 2q-4 4 -6 4t-2 1.5t-2 1.5h-2h-4q-2 -2 -4 -3q-4 0 -4 -4l-4 -4v-6v-4z M901 748q0 -4 2 -7q0 -4 4 -8t6 -4q2 -2 9 -2q4 0 6 2q2 0 3 1t3 1q0 2 4 6q0 2 1 2t1 2v7v6q-2 2 -2 3t-2 3t-3 2t-3 2q-2 0 -3 1t-3 1h-2h-4q-4 -2 -5 -2l-6 -4q-4 -4 -4 -6t-1 -3t-1 -3zM983 977q0 -2 1 -2t1 -2l6 -6h6h7l6 6q0 2 2 4v4q0 2 -2 4q0 4 -2 4l-4 4h-5h-2h-2 h-4l-4 -4l-4 -4v-4v-4z" />
<glyph unicode="&#xc0;" horiz-adv-x="1304" d="M-14 0l342 1636h647l344 -1636h-475l-23 162h-344l-22 -162h-469zM137 2044h469l223 -283h-364zM541 567h217l-111 621z" />
<glyph unicode="&#xc1;" horiz-adv-x="1304" d="M-14 0l342 1636h647l344 -1636h-475l-23 162h-344l-22 -162h-469zM473 1761l221 283h471l-327 -283h-365zM541 567h217l-111 621z" />
<glyph unicode="&#xc2;" horiz-adv-x="1304" d="M-14 0l342 1636h647l344 -1636h-475l-23 162h-344l-22 -162h-469zM150 1759l315 285h366l316 -285h-393l-107 164l-104 -164h-393zM541 567h217l-111 621z" />
<glyph unicode="&#xc3;" horiz-adv-x="1304" d="M-14 0l342 1636h647l344 -1636h-475l-23 162h-344l-22 -162h-469zM98 1759q8 57 58 125q125 174 352 174q63 0 217 -65q39 -12 74 -13q115 0 139 64h274q-12 -59 -61 -127q-123 -172 -348 -172q-53 0 -156 35q-53 18 -87 28.5t-50 10.5q-119 0 -137 -60h-275zM541 567 h217l-111 621z" />
<glyph unicode="&#xc4;" horiz-adv-x="1304" d="M-14 0l342 1636h647l344 -1636h-475l-23 162h-344l-22 -162h-469zM193 1776v268h385v-268h-385zM541 567h217l-111 621zM719 1776v268h385v-268h-385z" />
<glyph unicode="&#xc5;" horiz-adv-x="1304" d="M-14 0l342 1636h647l344 -1636h-475l-23 162h-344l-22 -162h-469zM401 1874q0 39 21.5 71.5t55.5 57.5t78 38t89 13q49 0 93 -13t78 -37t53.5 -56.5t19.5 -73.5t-19.5 -75t-53.5 -58.5t-78 -37.5t-93 -13q-47 0 -89 13t-77 36q-78 55 -78 135zM541 567h217l-111 621z M559 1874q0 -29 26.5 -50.5t59.5 -21.5q35 0 63.5 21.5t28.5 50.5q0 27 -28.5 47.5t-63.5 20.5q-33 0 -59.5 -20.5t-26.5 -47.5z" />
<glyph unicode="&#xc6;" horiz-adv-x="2" d="M-864 -51q0 16 11 26.5t28 10.5h8l45 49l41 47l2 2q-8 8 -8 22q0 39 39 39q10 0 20 -6h2l2 2l47 23l113 51h2l25 -12l133 -60l6 -2q8 6 20 6q39 0 39 -38q0 -16 -8 -25l6 -6l70 -78l14 -14h4q16 2 26.5 -10.5t10.5 -28.5t-10 -27.5t-27 -11.5q-16 0 -27.5 11t-11.5 28 q0 25 21 35l-60 63l-24 29l-2 2q-10 -6 -21 -6q-12 0 -20 6l-27 -31l-59 -63q23 -10 22 -35q0 -16 -8 -25l10 -10l78 -86q2 2 4 2q16 0 27.5 -11.5t11.5 -27.5q0 -39 -39 -39q-16 0 -27.5 11.5t-11.5 27.5q0 23 21 33l-57 65l-25 27q-10 -6 -21 -6q-16 0 -27 11t-11 28 q0 39 38 39h3l45 49l41 47l4 4q-8 8 -9 23q0 12 7 22l-9 4l-125 58l-20 8l-78 -35l-76 -35h-2q4 -6 6.5 -11t2.5 -14q0 -10 -9 -22l6 -6l70 -78l14 -14h5q16 2 26 -10.5t10 -28.5t-10 -27.5t-26 -11.5t-27.5 11t-11.5 28q0 25 20 35l-59 63l-25 29l-2 2q-10 -6 -20 -6 q-14 0 -23 6l-24 -31l-60 -63q18 -14 19 -33q0 -20 -17 -33l19 -20l67 -74q4 4 19 4q16 0 27.5 -10.5t11.5 -26.5q0 -12 -9 -25l6 -6l70 -75l12 -15h5q39 0 38 -39q0 -16 -11 -27.5t-27 -11.5t-26.5 11.5t-10.5 27.5q0 25 20 35l-59 64l-25 28h-2q-6 -6 -20 -6t-23 6 l-27 -28l-59 -66q18 -10 19 -33q0 -16 -11.5 -27.5t-27.5 -11.5t-26.5 11.5t-10.5 27.5t10 27.5t27 11.5h8l45 49l43 47l2 3q-8 12 -8 22q0 14 10 25q-23 25 -44.5 49t-43.5 47h-10q-39 0 -39 39zM-852 -51q0 -27 27 -27q26 0 26 27q0 25 -26 24q-10 0 -18.5 -7t-8.5 -17z M-852 -371q0 -27 25 -26q26 -1 26 26t-26 27q-10 0 -17.5 -8t-7.5 -19zM-725 106q0 -25 27 -24q26 -1 26 24q0 27 -26 27q-27 0 -27 -27zM-725 -211q0 -27 27 -27q26 0 26 27q0 25 -26 25q-10 0 -18.5 -7.5t-8.5 -17.5zM-678 139h2h-2zM-600 -53q0 -27 27 -27q24 0 24 27 t-24 26q-27 0 -27 -26zM-600 -371q0 -27 25 -26q26 -1 26 26t-26 27q-10 0 -17.5 -8t-7.5 -19zM-475 -53q0 -27 26 -27q25 0 25 27t-25 26q-27 0 -26 -26zM-354 -211q0 -27 26 -27q27 0 27 27t-27 27q-10 0 -18 -8.5t-8 -18.5zM-352 109q0 -27 24 -27q27 0 27 27t-27 26 q-10 0 -17 -8t-7 -18zM-350 76l2 2h-2v-2zM-305 76v2v-2zM-229 -53q0 -27 26 -27q25 0 25 27t-25 26q-27 0 -26 -26z" />
<glyph unicode="&#xc7;" horiz-adv-x="1378" d="M82 444v742q0 229 180 356q168 119 440 119q135 0 245 -31t188.5 -91t120.5 -149.5t42 -203.5v-187h-467v152q0 111 -129 111q-127 0 -127 -111v-659q0 -49 34 -82t93 -33q129 0 129 115v198h467v-246q0 -215 -135 -335.5t-387 -133.5l-28 -57h32q68 0 119 -34t51 -91 v-12q0 -70 -80 -115q-33 -16 -70.5 -24.5t-84.5 -10.5l-258 -2l57 111h223q51 0 56 43q4 14 -5.5 25.5t-29.5 11.5l-201 -2l82 157q-252 14 -399 129q-158 127 -158 340z" />
<glyph unicode="&#xc8;" horiz-adv-x="1366" d="M100 0v1636h1196v-395h-706v-209h387v-391h-387v-238h706v-403h-1196zM174 2044h471l221 -283h-364z" />
<glyph unicode="&#xc9;" horiz-adv-x="1366" d="M100 0v1636h1196v-395h-706v-209h387v-391h-387v-238h706v-403h-1196zM487 1761l222 283h471l-328 -283h-365z" />
<glyph unicode="&#xca;" horiz-adv-x="1366" d="M100 0v1636h1196v-395h-706v-209h387v-391h-387v-238h706v-403h-1196zM188 1759l316 285h368l316 -285h-393l-107 164l-106 -164h-394z" />
<glyph unicode="&#xcb;" horiz-adv-x="1366" d="M100 0v1636h1196v-395h-706v-209h387v-391h-387v-238h706v-403h-1196zM248 1776v268h385v-268h-385zM776 1776v268h385v-268h-385z" />
<glyph unicode="&#xcc;" horiz-adv-x="722" d="M-49 2040h465l221 -281h-365zM137 0v1636h488v-1636h-488z" />
<glyph unicode="&#xcd;" horiz-adv-x="690" d="M88 1761l221 283h471l-327 -283h-365zM100 0v1636h490v-1636h-490z" />
<glyph unicode="&#xce;" horiz-adv-x="954" d="M-18 1759l311 285h366l318 -285h-393l-107 164l-106 -164h-389zM240 0v1636h489v-1636h-489z" />
<glyph unicode="&#xcf;" horiz-adv-x="884" d="M-12 1776v268h379v-268h-379zM197 0v1636h487v-1636h-487zM512 1776v268h385v-268h-385z" />
<glyph unicode="&#xd0;" horiz-adv-x="1423" d="M0 791v77h100v768h615q276 0 442 -116q180 -127 180 -359v-684q0 -231 -180 -358q-168 -119 -442 -119h-615v791h-100zM592 403h125q131 0 131 115v608q0 115 -131 115h-125v-373l100 -2v-75h-100v-388z" />
<glyph unicode="&#xd1;" horiz-adv-x="1503" d="M100 0v1632h404l416 -706v706h489v-1632h-405l-414 567v-567h-490zM219 1759q12 61 62 125q129 174 348 174q49 0 153 -37l66 -24q18 -6 36.5 -10.5t37.5 -4.5q115 0 137 62h274q-8 -57 -59 -127q-123 -172 -350 -172q-51 0 -154 35q-53 18 -87 28.5t-50 10.5 q-119 0 -137 -60h-277z" />
<glyph unicode="&#xd2;" horiz-adv-x="1411" d="M82 446v740q0 225 178 356q166 119 440 119q270 0 439 -119q180 -125 180 -356v-740q0 -117 -43 -206.5t-133 -151.5q-170 -115 -443 -115q-279 0 -440 115q-178 125 -178 358zM174 2044h471l221 -283h-364zM571 487q0 -112 129 -112t129 112v662q0 111 -129 111 t-129 -111v-662z" />
<glyph unicode="&#xd3;" horiz-adv-x="1411" d="M82 446v740q0 225 178 356q166 119 440 119q270 0 439 -119q180 -125 180 -356v-740q0 -117 -43 -206.5t-133 -151.5q-170 -115 -443 -115q-279 0 -440 115q-178 125 -178 358zM492 1761l223 283h469l-328 -283h-364zM571 487q0 -112 129 -112t129 112v662 q0 111 -129 111t-129 -111v-662z" />
<glyph unicode="&#xd4;" horiz-adv-x="1411" d="M82 446v740q0 225 178 356q166 119 440 119q270 0 439 -119q180 -125 180 -356v-740q0 -117 -43 -206.5t-133 -151.5q-170 -115 -443 -115q-279 0 -440 115q-178 125 -178 358zM201 1759l317 285h367l315 -285h-393l-107 164l-106 -164h-393zM571 487q0 -112 129 -112 t129 112v662q0 111 -129 111t-129 -111v-662z" />
<glyph unicode="&#xd5;" horiz-adv-x="1411" d="M82 446v740q0 225 178 356q166 119 440 119q270 0 439 -119q180 -125 180 -356v-740q0 -117 -43 -206.5t-133 -151.5q-170 -115 -443 -115q-279 0 -440 115q-178 125 -178 358zM139 1759q12 61 62 125q129 174 348 174q49 0 153 -37l66 -24q18 -6 36.5 -10.5t37.5 -4.5 q115 0 137 62h274q-8 -57 -59 -127q-123 -172 -350 -172q-51 0 -154 35q-53 18 -87 28.5t-50 10.5q-119 0 -137 -60h-277zM571 487q0 -112 129 -112t129 112v662q0 111 -129 111t-129 -111v-662z" />
<glyph unicode="&#xd6;" horiz-adv-x="1411" d="M82 446v740q0 225 178 356q166 119 440 119q270 0 439 -119q180 -125 180 -356v-740q0 -117 -43 -206.5t-133 -151.5q-170 -115 -443 -115q-279 0 -440 115q-178 125 -178 358zM242 1776v268h385v-268h-385zM571 487q0 -112 129 -112t129 112v662q0 111 -129 111 t-129 -111v-662zM772 1776v268h385v-268h-385z" />
<glyph unicode="&#xd7;" horiz-adv-x="1359" d="M100 330l297 256l-297 258l279 239l299 -256l299 256l280 -239l-299 -258l299 -256l-280 -242l-299 256l-299 -256z" />
<glyph unicode="&#xd8;" horiz-adv-x="1816" d="M10 242l275 237v707q0 233 180 358q166 117 442 117q367 0 527 -197l143 125l227 -196l-278 -236v-711q0 -117 -43 -206.5t-133 -151.5q-168 -115 -443 -115q-367 0 -528 197l-143 -125zM776 487q0 -113 131 -112q129 0 129 112v248l-260 -223v-25zM776 899l260 223v27 q0 111 -129 111q-131 0 -131 -111v-250z" />
<glyph unicode="&#xd9;" horiz-adv-x="1421" d="M94 446v1190h490v-1149q0 -49 34.5 -80.5t94.5 -31.5q129 0 129 112v1149h489v-1187q0 -233 -176 -361q-164 -115 -442 -115q-279 0 -441 115q-178 125 -178 358zM195 2044h471l221 -283h-365z" />
<glyph unicode="&#xda;" horiz-adv-x="1421" d="M94 446v1190h490v-1149q0 -49 34.5 -80.5t94.5 -31.5q129 0 129 112v1149h489v-1187q0 -233 -176 -361q-164 -115 -442 -115q-279 0 -441 115q-178 125 -178 358zM526 1761l224 283h469l-326 -283h-367z" />
<glyph unicode="&#xdb;" horiz-adv-x="1421" d="M94 446v1190h490v-1149q0 -49 34.5 -80.5t94.5 -31.5q129 0 129 112v1149h489v-1187q0 -233 -176 -361q-164 -115 -442 -115q-279 0 -441 115q-178 125 -178 358zM213 1759l317 285h367l315 -285h-393l-106 164l-107 -164h-393z" />
<glyph unicode="&#xdc;" horiz-adv-x="1421" d="M94 446v1190h490v-1149q0 -49 34.5 -80.5t94.5 -31.5q129 0 129 112v1149h489v-1187q0 -233 -176 -361q-164 -115 -442 -115q-279 0 -441 115q-178 125 -178 358zM254 1776v268h385v-268h-385zM784 1776v268h385v-268h-385z" />
<glyph unicode="&#xdd;" horiz-adv-x="1290" d="M-14 1636h489l164 -575l166 575h500l-418 -934v-702h-492v700zM526 1761l224 283h469l-326 -283h-367z" />
<glyph unicode="&#xde;" horiz-adv-x="1429" d="M100 0v1636h637q260 0 432 -106q190 -121 191 -340v-86q0 -184 -211 -307q188 -127 188 -365v-432h-489v473q0 109 -139 109h-119v-582h-490zM590 963h123q172 0 172 139t-172 139h-123v-278z" />
<glyph unicode="&#xdf;" horiz-adv-x="1513" d="M100 0v1219q0 213 197 333q180 109 432 109h70q250 0 424 -113q193 -127 192 -329v-54q0 -172 -203 -282q229 -111 230 -308v-102q0 -231 -180 -356q-166 -117 -443 -117h-102v403h114q119 0 119 113v45q0 113 -119 113h-114v346h98q119 0 119 127q0 115 -119 115h-96 q-127 -10 -127 -115v-1147h-492z" />
<glyph unicode="&#xe0;" horiz-adv-x="1312" d="M41 360q0 250 278 342q14 4 57.5 13.5t115.5 25.5q74 16 115.5 24.5t51.5 8.5q35 4 57.5 8t31.5 6q49 18 49 56q0 41 -58 41h-583v301h669q172 0 279 -72q115 -78 115 -225v-889h-693q-223 0 -346 84q-139 90 -139 276zM207 1634h471l221 -282h-364zM463 383 q0 -49 57 -49h262v168l-250 -72q-70 -20 -69 -47z" />
<glyph unicode="&#xe1;" horiz-adv-x="1312" d="M41 360q0 250 278 342q14 4 57.5 13.5t115.5 25.5q74 16 115.5 24.5t51.5 8.5q35 4 57.5 8t31.5 6q49 18 49 56q0 41 -58 41h-583v301h669q172 0 279 -72q115 -78 115 -225v-889h-693q-223 0 -346 84q-139 90 -139 276zM442 1356l224 280h469l-328 -280h-365zM463 383 q0 -49 57 -49h262v168l-250 -72q-70 -20 -69 -47z" />
<glyph unicode="&#xe2;" horiz-adv-x="1312" d="M41 360q0 250 278 342q14 4 57.5 13.5t115.5 25.5q74 16 115.5 24.5t51.5 8.5q35 4 57.5 8t31.5 6q49 18 49 56q0 41 -58 41h-583v301h669q172 0 279 -72q115 -78 115 -225v-889h-693q-223 0 -346 84q-139 90 -139 276zM160 1352l317 284h367l315 -284h-391l-109 164 l-104 -164h-395zM463 383q0 -49 57 -49h262v168l-250 -72q-70 -20 -69 -47z" />
<glyph unicode="&#xe3;" horiz-adv-x="1312" d="M41 360q0 250 278 342q14 4 57.5 13.5t115.5 25.5q74 16 115.5 24.5t51.5 8.5q35 4 57.5 8t31.5 6q49 18 49 56q0 41 -58 41h-583v301h669q172 0 279 -72q115 -78 115 -225v-889h-693q-223 0 -346 84q-139 90 -139 276zM104 1352q6 29 20.5 60.5t41.5 64.5 q129 174 348 174q25 0 62.5 -8.5t91.5 -26.5l63 -25q37 -14 76 -14q117 0 137 59h275q-8 -57 -60 -127q-123 -172 -350 -172q-47 0 -154 37q-53 18 -87 28.5t-50 10.5q-119 0 -139 -61h-275zM463 383q0 -49 57 -49h262v168l-250 -72q-70 -20 -69 -47z" />
<glyph unicode="&#xe4;" horiz-adv-x="1312" d="M41 360q0 250 278 342q14 4 57.5 13.5t115.5 25.5q74 16 115.5 24.5t51.5 8.5q35 4 57.5 8t31.5 6q49 18 49 56q0 41 -58 41h-583v301h669q172 0 279 -72q115 -78 115 -225v-889h-693q-223 0 -346 84q-139 90 -139 276zM217 1370v266h385v-266h-385zM463 383 q0 -49 57 -49h262v168l-250 -72q-70 -20 -69 -47zM748 1370v266h385v-266h-385z" />
<glyph unicode="&#xe5;" horiz-adv-x="1312" d="M41 360q0 250 278 342q14 4 57.5 13.5t115.5 25.5q74 16 115.5 24.5t51.5 8.5q35 4 57.5 8t31.5 6q49 18 49 56q0 41 -58 41h-583v301h669q172 0 279 -72q115 -78 115 -225v-889h-693q-223 0 -346 84q-139 90 -139 276zM432 1479q0 39 21.5 72.5t55.5 58t77 38t88 13.5 q49 0 93 -13.5t78 -37t54.5 -57t20.5 -74.5t-20.5 -75t-54.5 -57.5t-78 -37t-93 -13.5q-94 0 -164 50q-78 53 -78 133zM463 383q0 -49 57 -49h262v168l-250 -72q-70 -20 -69 -47zM588 1479q0 -27 27.5 -48.5t58.5 -21.5q37 0 65.5 21.5t28.5 48.5q0 29 -28.5 49t-65.5 20 q-31 0 -58.5 -20.5t-27.5 -48.5z" />
<glyph unicode="&#xe6;" horiz-adv-x="2035" d="M72 362q0 125 68.5 212.5t209.5 130.5q78 25 136.5 35t93.5 18l79 14q4 2 9 2q10 0 20 2q23 4 39 6t27 4q12 2 22 5q53 18 53 53q0 39 -59 39h-582v303h664q141 0 227 -49q66 35 138.5 51t154.5 16q287 0 432 -164q66 -72 99.5 -171t33.5 -228v-209h-706q0 -98 102 -98 h533v-334h-1307q-223 0 -346 86q-141 98 -141 276zM496 383q0 -49 57 -49h262v170l-250 -72q-70 -20 -69 -49zM1223 705h313q0 57 -29 120l-22 27q-55 33 -107 33q-156 0 -155 -180z" />
<glyph unicode="&#xe7;" horiz-adv-x="1021" d="M47 551v74q0 244 100 379q133 182 351 182h471v-301h-367q-49 0 -72 -29q-14 -18 -32 -68q-12 -74 -13 -139v-86q0 -115 50 -209q18 -20 67 -20h367v-334h-471q-244 0 -361 180q-90 139 -90 371zM326 -348l57 108h221q25 0 39 12.5t16 30.5q6 16 -4 26.5t-30 10.5 l-201 -2l98 185h135l-43 -82h33q68 0 119 -35t51 -90v-15q0 -68 -80 -112q-61 -35 -155 -35z" />
<glyph unicode="&#xe8;" d="M55 541v90q0 23 2 24q27 254 152 387q154 162 428 162q289 0 434 -166q133 -152 133 -403v-203h-704v-12q2 -2 2 -14q18 -72 100 -72h531v-334h-631q-320 0 -420 317q-27 88 -27 224zM139 1636h471l221 -280h-364zM489 705h316q0 12 -4 30.5t-8 48.5q-2 10 -13.5 26.5 t-29.5 41.5q-49 33 -105 33q-156 0 -156 -180z" />
<glyph unicode="&#xe9;" d="M55 541v90q0 23 2 24q27 254 152 387q154 162 428 162q289 0 434 -166q133 -152 133 -403v-203h-704v-12q2 -2 2 -14q18 -72 100 -72h531v-334h-631q-320 0 -420 317q-27 88 -27 224zM442 1356l224 280h469l-328 -280h-365zM489 705h316q0 12 -4 30.5t-8 48.5 q-2 10 -13.5 26.5t-29.5 41.5q-49 33 -105 33q-156 0 -156 -180z" />
<glyph unicode="&#xea;" d="M55 541v90q0 23 2 24q27 254 152 387q154 162 428 162q289 0 434 -166q133 -152 133 -403v-203h-704v-12q2 -2 2 -14q18 -72 100 -72h531v-334h-631q-320 0 -420 317q-27 88 -27 224zM123 1352l317 284h367l315 -284h-393l-106 164l-105 -164h-395zM489 705h316 q0 12 -4 30.5t-8 48.5q-2 10 -13.5 26.5t-29.5 41.5q-49 33 -105 33q-156 0 -156 -180z" />
<glyph unicode="&#xeb;" d="M55 541v90q0 23 2 24q27 254 152 387q154 162 428 162q289 0 434 -166q133 -152 133 -403v-203h-704v-12q2 -2 2 -14q18 -72 100 -72h531v-334h-631q-320 0 -420 317q-27 88 -27 224zM174 1370v266h385v-266h-385zM489 705h316q0 12 -4 30.5t-8 48.5q-2 10 -13.5 26.5 t-29.5 41.5q-49 33 -105 33q-156 0 -156 -180zM705 1370v266h385v-266h-385z" />
<glyph unicode="&#xec;" horiz-adv-x="669" d="M-66 1636h465l226 -280h-367zM150 0v1186h438v-1186h-438z" />
<glyph unicode="&#xed;" horiz-adv-x="669" d="M35 1356l223 280h469l-328 -280h-364zM90 0v1186h436v-1186h-436z" />
<glyph unicode="&#xee;" horiz-adv-x="901" d="M-45 1352l309 284h369l317 -284h-393l-106 164l-109 -164h-387zM229 0v1186h439v-1186h-439z" />
<glyph unicode="&#xef;" horiz-adv-x="964" d="M25 1370v266h385v-266h-385zM262 0v1186h438v-1186h-438zM555 1370v266h385v-266h-385z" />
<glyph unicode="&#xf0;" horiz-adv-x="1296" d="M49 541v63q0 135 23 238q45 180 219 288q86 55 221 56h260v162h-102v77h102v211h436v-211h88v-77h-88v-1348h-708q-156 0 -275 94q-106 86 -149 223q-12 41 -19.5 95.5t-7.5 128.5zM492 528q0 -29 12 -102q18 -92 123 -92h145v551h-151q-51 0 -84 -27l-15 -12 q-18 -29 -26 -125v-29q-4 -4 -4 -24v-140z" />
<glyph unicode="&#xf1;" horiz-adv-x="1296" d="M90 0v1186h662q135 0 256 -58q135 -61 170 -165q37 -111 36 -281v-682h-434v741q0 143 -131 144h-125v-885h-434zM94 1352q6 29 20.5 60.5t41.5 64.5q129 174 348 174q25 0 62.5 -8.5t90.5 -26.5l66 -25q35 -14 74 -14q117 0 137 59h274q-8 -57 -59 -127 q-123 -172 -350 -172q-47 0 -154 37q-53 18 -87 28.5t-50 10.5q-119 0 -137 -61h-277z" />
<glyph unicode="&#xf2;" d="M53 543v94q0 23 2 25q51 543 578 542q287 0 438 -166q141 -152 141 -401v-94q0 -215 -143 -398q-123 -158 -436 -157v-2q-289 4 -438 157q-141 147 -142 400zM139 1636h471l221 -280h-364zM393 532q0 -41 14.5 -78.5t43 -66.5t71.5 -46t101 -17q57 0 101 17t73.5 46 t44 67t14.5 78v154q0 86 -58.5 149.5t-174.5 63.5q-115 0 -172.5 -60.5t-57.5 -146.5v-160z" />
<glyph unicode="&#xf3;" d="M53 543v94q0 23 2 25q51 543 578 542q287 0 438 -166q141 -152 141 -401v-94q0 -215 -143 -398q-123 -158 -436 -157v-2q-289 4 -438 157q-141 147 -142 400zM393 532q0 -41 14.5 -78.5t43 -66.5t71.5 -46t101 -17q57 0 101 17t73.5 46t44 67t14.5 78v154 q0 86 -58.5 149.5t-174.5 63.5q-115 0 -172.5 -60.5t-57.5 -146.5v-160zM442 1356l224 280h469l-328 -280h-365z" />
<glyph unicode="&#xf4;" d="M53 543v94q0 23 2 25q51 543 578 542q287 0 438 -166q141 -152 141 -401v-94q0 -215 -143 -398q-123 -158 -436 -157v-2q-289 4 -438 157q-141 147 -142 400zM123 1352l315 284h367l315 -284h-393l-104 164l-109 -164h-391zM393 532q0 -41 14.5 -78.5t43 -66.5t71.5 -46 t101 -17q57 0 101 17t73.5 46t44 67t14.5 78v154q0 86 -58.5 149.5t-174.5 63.5q-115 0 -172.5 -60.5t-57.5 -146.5v-160z" />
<glyph unicode="&#xf5;" d="M53 543v94q0 23 2 25q51 543 578 542q287 0 438 -166q141 -152 141 -401v-94q0 -215 -143 -398q-123 -158 -436 -157v-2q-289 4 -438 157q-141 147 -142 400zM76 1352q10 59 59 125q129 174 350 174q25 0 62 -8.5t90 -26.5l65 -25q35 -14 74 -14q115 0 139 59h275 q-12 -59 -62 -127q-123 -172 -348 -172q-49 0 -155 37q-53 18 -87.5 28.5t-50.5 10.5q-119 0 -137 -61h-274zM393 532q0 -41 14.5 -78.5t43 -66.5t71.5 -46t101 -17q57 0 101 17t73.5 46t44 67t14.5 78v154q0 86 -58.5 149.5t-174.5 63.5q-115 0 -172.5 -60.5t-57.5 -146.5 v-160z" />
<glyph unicode="&#xf6;" d="M53 543v94q0 23 2 25q51 543 578 542q287 0 438 -166q141 -152 141 -401v-94q0 -215 -143 -398q-123 -158 -436 -157v-2q-289 4 -438 157q-141 147 -142 400zM174 1370v266h385v-266h-385zM393 532q0 -41 14.5 -78.5t43 -66.5t71.5 -46t101 -17q57 0 101 17t73.5 46 t44 67t14.5 78v154q0 86 -58.5 149.5t-174.5 63.5q-115 0 -172.5 -60.5t-57.5 -146.5v-160zM705 1370v266h385v-266h-385z" />
<glyph unicode="&#xf7;" horiz-adv-x="1241" d="M51 512v358h1133v-358h-1133zM430 0v350h399v-350h-399zM430 1053v350h399v-350h-399z" />
<glyph unicode="&#xf8;" horiz-adv-x="1355" d="M27 188l118 103q-51 115 -51 260v90q0 109 30 204t91 171q72 86 185.5 137t273.5 51q127 0 224 -31.5t169 -87.5l104 91l156 -181l-119 -100q49 -117 49 -254v-90q0 -109 -29.5 -204t-90.5 -171q-72 -86 -186.5 -137t-276.5 -51q-123 0 -218.5 30.5t-164.5 83.5l-109 -94 zM434 539l373 323q-59 37 -143 37q-115 0 -172.5 -60.5t-57.5 -146.5v-153zM565 340q45 -16 99 -16q57 0 101 17t73.5 46t44 66.5t14.5 78.5v93z" />
<glyph unicode="&#xf9;" horiz-adv-x="1296" d="M72 479v707h438v-711q0 -141 127 -141h127v852h436v-1186h-700q-115 0 -213 51q-191 104 -209 262q-6 43 -6 166zM137 1636h469l223 -280h-364z" />
<glyph unicode="&#xfa;" horiz-adv-x="1296" d="M82 479v707h438v-711q0 -141 127 -141h127v852h434v-1186h-698q-59 0 -111.5 13.5t-101.5 37.5q-191 100 -209 262q-6 43 -6 166zM455 1356l223 280h469l-328 -280h-364z" />
<glyph unicode="&#xfb;" horiz-adv-x="1296" d="M72 479v707h438v-711q0 -141 127 -141h127v852h436v-1186h-700q-115 0 -213 51q-191 104 -209 262q-6 43 -6 166zM137 1352l316 284h366l316 -284h-394l-106 164l-105 -164h-393z" />
<glyph unicode="&#xfc;" horiz-adv-x="1296" d="M82 479v707h438v-711q0 -141 127 -141h127v852h434v-1186h-698q-59 0 -111.5 13.5t-101.5 37.5q-191 100 -209 262q-6 43 -6 166zM193 1370v266h385v-266h-385zM723 1370v266h383v-266h-383z" />
<glyph unicode="&#xfd;" horiz-adv-x="1341" d="M8 1186h484l190 -727l178 727h483l-464 -1319q-102 -293 -437 -295l-307 -2v321h164q8 0 43 7q115 12 115 90q0 16 -15 53zM455 1356l223 280h469l-328 -280h-364z" />
<glyph unicode="&#xfe;" horiz-adv-x="2064" d="M0 1636h498l151 -1087l205 1087h354l207 -1087l152 1087h497l-348 -1636h-555l-127 723l-133 -723h-553z" />
<glyph unicode="&#xff;" horiz-adv-x="1341" d="M8 1186h484l190 -727l178 727h483l-464 -1319q-102 -293 -437 -295l-307 -2v321h164q8 0 43 7q115 12 115 90q0 16 -15 53zM229 1370v266h385v-266h-385zM760 1370v266h385v-266h-385z" />
<glyph unicode="&#x152;" horiz-adv-x="2" d="M-645 223v137h37v-38h22q20 0 29 -15v15h20v28h37v-28h4h17h22l13 -58l14 58h37l-31 -99h-39l-24 74h-13v-33v-10h2q0 -2 6 -2h13v-29h-23q-16 0 -30 15q-4 12 -5 16v43h-16q2 -4 2 -14v-60h-37v62q0 12 -10 12h-10v-74h-37z" />
<glyph unicode="&#x153;" horiz-adv-x="2" d="M-1006 203v20h977v-20h-977zM-1006 225v23h977v-23h-977zM-1006 252v127h977v-127h-977z" />
<glyph unicode="&#x178;" horiz-adv-x="1290" d="M-14 1636h489l164 -575l166 575h500l-418 -934v-702h-492v700zM188 1776v268h383v-268h-383zM717 1776v268h385v-268h-385z" />
<glyph unicode="&#x2c6;" horiz-adv-x="622" d="M-193 1352l314 284h366l316 -284h-393l-107 164l-106 -164h-390z" />
<glyph unicode="&#x2dc;" horiz-adv-x="622" d="M43 1352q10 59 59 125q129 174 351 174q25 0 61.5 -8.5t89.5 -26.5l66 -25q37 -14 75 -14q113 0 138 59h274q-12 -57 -59 -127q-127 -172 -350 -172q-49 0 -156 37q-53 18 -87 28.5t-50 10.5q-119 0 -138 -61h-274z" />
<glyph unicode="&#x2000;" horiz-adv-x="1029" />
<glyph unicode="&#x2001;" horiz-adv-x="2058" />
<glyph unicode="&#x2002;" horiz-adv-x="1029" />
<glyph unicode="&#x2003;" horiz-adv-x="2058" />
<glyph unicode="&#x2004;" horiz-adv-x="686" />
<glyph unicode="&#x2005;" horiz-adv-x="514" />
<glyph unicode="&#x2006;" horiz-adv-x="343" />
<glyph unicode="&#x2007;" horiz-adv-x="343" />
<glyph unicode="&#x2008;" horiz-adv-x="257" />
<glyph unicode="&#x2009;" horiz-adv-x="411" />
<glyph unicode="&#x200a;" horiz-adv-x="114" />
<glyph unicode="&#x2010;" horiz-adv-x="630" d="M53 631v260h504v-260h-504z" />
<glyph unicode="&#x2011;" horiz-adv-x="630" d="M53 631v260h504v-260h-504z" />
<glyph unicode="&#x2012;" horiz-adv-x="630" d="M53 631v260h504v-260h-504z" />
<glyph unicode="&#x2013;" horiz-adv-x="1241" d="M92 512v358h1051v-358h-1051z" />
<glyph unicode="&#x2014;" horiz-adv-x="2484" d="M100 512v358h2278v-358h-2278z" />
<glyph unicode="&#x2018;" horiz-adv-x="489" d="M92 1022v278q0 33 5 65t16 65q59 201 241 208l39 2v-192h-37q-47 0 -82 -41l-4 -16h123v-369h-301z" />
<glyph unicode="&#x2019;" horiz-adv-x="489" d="M92 1022v192h35q51 0 82 41q6 12 6 17h-123v368h301v-278q0 -72 -18 -129q-66 -201 -246 -209z" />
<glyph unicode="&#x201a;" horiz-adv-x="489" d="M92 2v371h301v-281q0 -72 -18 -127q-63 -197 -246 -209l-37 -2v195h35q53 0 82 41l6 12h-123z" />
<glyph unicode="&#x201c;" horiz-adv-x="862" d="M92 1022v278q0 33 5 65t16 65q59 201 241 208l39 2v-192h-37q-47 0 -82 -41l-4 -16h123v-369h-301zM465 1024v279q0 68 20 129q59 201 242 208l37 2v-192h-35q-47 0 -82 -41l-4 -16h121v-369h-299z" />
<glyph unicode="&#x201d;" horiz-adv-x="862" d="M92 1022v192h35q51 0 82 41q6 12 6 17h-123v368h301v-278q0 -72 -18 -129q-66 -201 -246 -209zM465 1024v193h35q47 0 82 40q2 6 4 10.5t2 6.5h-123v368h299v-278q0 -35 -3 -67.5t-13 -61.5q-66 -201 -246 -209z" />
<glyph unicode="&#x201e;" horiz-adv-x="862" d="M92 2v371h301v-281q0 -72 -18 -127q-63 -197 -246 -209l-37 -2v195h35q53 0 82 41l6 12h-123zM465 4v371h299v-281q0 -37 -3 -67.5t-13 -59.5q-63 -197 -246 -209l-37 -2v195h35q49 0 82 41q0 4 4 8q2 2 2 4h-123z" />
<glyph unicode="&#x2022;" horiz-adv-x="622" d="M72 649q0 43 18.5 81t51 66.5t75.5 45t92 16.5q106 0 175 -58.5t69 -150.5q0 -43 -19.5 -81t-52 -65.5t-78 -44t-94.5 -16.5t-92 16.5t-74.5 45t-51 66.5t-19.5 79z" />
<glyph unicode="&#x2026;" horiz-adv-x="2377" d="M152 0v274h344v-274h-344zM1012 0v274h344v-274h-344zM1872 0v274h344v-274h-344z" />
<glyph unicode="&#x202f;" horiz-adv-x="411" />
<glyph unicode="&#x2039;" horiz-adv-x="514" d="M57 471v217l381 277v-279l-215 -115l215 -98v-278z" />
<glyph unicode="&#x203a;" horiz-adv-x="514" d="M80 195v278l213 98l-213 115v279l379 -277v-217z" />
<glyph unicode="&#x205f;" horiz-adv-x="514" />
<glyph unicode="&#x2122;" horiz-adv-x="2048" d="M80 1389v245h768v-245h-234v-768h-305v768h-229zM936 618v1016h258l254 -379l254 379h256v-1016h-311v445l-199 -301l-201 301v-445h-311z" />
<glyph unicode="&#x25fc;" horiz-adv-x="1187" d="M0 0v1188h1188v-1188h-1188z" />
<glyph unicode="&#xfb01;" horiz-adv-x="1503" d="M90 0v1112q0 66 4 117t12 96q39 174 193 262q86 49 231 49h344v-329h-229q-70 0 -88 -19q0 -2 -4 -6q-20 -27 -21 -135v-121h277v-293h-277v-733h-442zM979 0v1184h438v-1184h-438zM979 1307v329h438v-329h-438z" />
<glyph unicode="&#xfb02;" horiz-adv-x="1511" d="M90 0v1112q0 66 4 117t12 96q39 174 193 262q86 49 231 49h353v-329h-238q-70 0 -88 -19q0 -2 -4 -6q-20 -27 -21 -135v-121h277v-293h-277v-733h-442zM977 0v1636h438v-1636h-438z" />
</font>
</defs>
</svg>
