<svg xmlns="http://www.w3.org/2000/svg" viewBox="0 0 253.12 90.88"><defs><style>.cls-1{fill:#c6bb2f;}</style></defs><title>Asset 4</title><g id="Layer_2" data-name="Layer 2"><g id="Layer_1-2" data-name="Layer 1"><g id="_Group_" data-name="&lt;Group&gt;"><path id="_Path_" data-name="&lt;Path&gt;" class="cls-1" d="M66.4,47.85,66,47.47l.33.37Z"/><path id="_Path_2" data-name="&lt;Path&gt;" class="cls-1" d="M219,18C109-35.53,66,47.47,66,47.47s31.23,12.6,108.25-5.75c0,0-44,22.62-98,16.41a.14.14,0,0,1,0,.06c-7.7-.81-46.77-5.13-64.8-11.15-20-6.71-9.57,3.73-.76,5,7.63,1.12,54.77,6.61,67.3,8.06,86.35,82.59,165.74-25.78,175.09-39.29C250.58,23.83,242.06,29.88,219,18Z"/></g></g></g></svg>