<svg xmlns="http://www.w3.org/2000/svg" viewBox="0 0 321.78 264.34"><defs><style>.cls-1{fill:#c69e57;}</style></defs><title>Asset 3</title><g id="Layer_2" data-name="Layer 2"><g id="Layer_1-2" data-name="Layer 1"><g id="_Group_" data-name="&lt;Group&gt;"><path id="_Path_" data-name="&lt;Path&gt;" class="cls-1" d="M246.63,78.1l0-.84c0,.27,0,.53,0,.79C246.64,78.07,246.64,78.09,246.63,78.1Z"/><path id="_Path_2" data-name="&lt;Path&gt;" class="cls-1" d="M36.18,216.68C102.73,30,246.61,77.26,246.61,77.26s-21.84,50-131.73,116.13c0,0,76.58-23.77,131.94-92.15l.09,0c8-9.67,48.29-59,62.31-86.4,15.59-30.49,15.3-6.53,6.58,4.95-7.56,10-55.86,69.77-68.7,85.66C240.89,299,26.14,263.66,0,258.64,6.34,259.23,23.06,256.56,36.18,216.68Z"/></g></g></g></svg>